
<svg viewBox="-8 -8 16 16" xmlns="http://www.w3.org/2000/svg" width="400" height="400">
  <g transform="scale(1 -1)">
  <rect x="-8" y="-8" width="16" height="16" fill="darkgrey" stroke-width="0" />
    <polygon points="2.5,-4.5 3,-3.6339745962155616 2.5,-2.767949192431123 3.3660254037844384,-2.267949192431123 3.3660254037844384,-1.2679491924311228 2.3660254037844384,-1.2679491924311228 1.8660254037844386,-2.1339745962155616 1,-1.6339745962155614 0.1339745962155614,-2.1339745962155616 -0.7320508075688772,-2.6339745962155616 -0.7320508075688772,-3.6339745962155616 0.2679491924311228,-3.6339745962155616 0.7679491924311228,-4.5 1.6339745962155614,-4" stroke-width="0.2%" stroke="black" fill="lightgrey" />
    <polygon points="3.3660254037844384,-1.2679491924311228 3.3660254037844384,-0.2679491924311228 2.5,0.2320508075688772 3,1.098076211353316 2.5,1.9641016151377544 1.6339745962155614,1.4641016151377544 1.6339745962155614,0.4641016151377544 0.6339745962155614,0.4641016151377544 0.1339745962155614,-0.401923788646684 -0.3660254037844386,-1.2679491924311228 0.1339745962155614,-2.1339745962155616 1,-1.6339745962155614 1.8660254037844386,-2.1339745962155616 2.3660254037844384,-1.2679491924311228" stroke-width="0.2%" stroke="black" fill="lightgrey" />
    <polygon points="2.5,1.9641016151377544 2,2.8301270189221928 1,2.8301270189221928 1,3.8301270189221928 0.1339745962155614,4.330127018922193 -0.3660254037844386,3.4641016151377544 0.1339745962155614,2.598076211353316 -0.7320508075688772,2.098076211353316 -0.7320508075688772,1.098076211353316 -0.7320508075688772,0.09807621135331601 0.1339745962155614,-0.401923788646684 0.6339745962155614,0.4641016151377544 1.6339745962155614,0.4641016151377544 1.6339745962155614,1.4641016151377544" stroke-width="0.2%" stroke="black" fill="lightgrey" />
    <polygon points="0.1339745962155614,2.598076211353316 -0.3660254037844386,3.4641016151377544 -1.3660254037844386,3.4641016151377544 -1.3660254037844386,4.464101615137754 -2.232050807568877,4.964101615137754 -2.732050807568877,4.098076211353316 -2.232050807568877,3.232050807568877 -3.098076211353316,2.732050807568877 -3.098076211353316,1.7320508075688772 -3.098076211353316,0.7320508075688772 -2.232050807568877,0.2320508075688772 -1.7320508075688772,1.098076211353316 -0.7320508075688772,1.098076211353316 -0.7320508075688772,2.098076211353316" stroke-width="0.2%" stroke="black" fill="lightgrey" />
    <polygon points="-0.7320508075688772,1.098076211353316 -1.7320508075688772,1.098076211353316 -2.232050807568877,0.2320508075688772 -3.098076211353316,0.7320508075688772 -3.9641016151377544,0.2320508075688772 -3.4641016151377544,-0.6339745962155614 -2.4641016151377544,-0.6339745962155614 -2.4641016151377544,-1.6339745962155614 -1.598076211353316,-2.1339745962155616 -0.7320508075688772,-2.6339745962155616 0.1339745962155614,-2.1339745962155616 -0.3660254037844386,-1.2679491924311228 0.1339745962155614,-0.401923788646684 -0.7320508075688772,0.09807621135331601" stroke-width="0.2%" stroke="black" fill="lightgrey" />

  </g>
</svg>
