
<svg viewBox="-8 -8 16 16" xmlns="http://www.w3.org/2000/svg" width="240" height="240">
  <g transform="scale(1 -1)">
  <rect x="-8" y="-8" width="16" height="16" fill="darkgrey" stroke-width="0" />
    <polygon points="-2,-4 0,-4 0.5,-3.1339745962155616 -1,-2.267949192431123 -1,-0.5358983848622456 -2,-0.5358983848622456 -2.5,0.33012701892219276 -4,-0.5358983848622456 -4,-2.267949192431123 -5,-2.267949192431123 -5.5,-3.1339745962155616 -4,-4 -2.5,-3.1339745962155616" stroke-width="0.2%" stroke="black" fill="lightgrey" />
    <polygon points="-2,-0.5 0,-0.5 0.5,0.3660254037844386 -1,1.2320508075688772 -1,2.9641016151377544 -2,2.9641016151377544 -2.5,3.8301270189221928 -4,2.9641016151377544 -4,1.2320508075688772 -5,1.2320508075688772 -5.5,0.3660254037844386 -4,-0.5 -2.5,0.3660254037844386" stroke-width="0.2%" stroke="black" fill="lightgrey" />
    <polygon points="3,-2.267949192431123 4,-0.5358983848622456 3.5,0.33012701892219276 2,-0.5358983848622456 0.5,0.33012701892219276 0,-0.5358983848622456 -1,-0.5358983848622456 -1,-2.267949192431123 0.5,-3.1339745962155616 0,-4 0.5,-4.866025403784438 2,-4 2,-2.267949192431123" stroke-width="0.2%" stroke="black" fill="lightgrey" />

  </g>
</svg>
