
<svg viewBox="-20 -20 40 40" xmlns="http://www.w3.org/2000/svg" width="800" height="800">
  <g transform="scale(1 -1)">
  <rect x="-20" y="-20" width="40" height="40" fill="darkgrey" stroke-width="0" />
    <polygon points="0,0 0.5,0.8660254037844386 0,1.7320508075688772 0.8660254037844386,2.232050807568877 0.8660254037844386,3.232050807568877 -0.1339745962155614,3.232050807568877 -0.6339745962155614,2.3660254037844384 -1.5,2.8660254037844384 -2.3660254037844384,2.3660254037844384 -3.232050807568877,1.8660254037844386 -3.232050807568877,0.8660254037844386 -2.232050807568877,0.8660254037844386 -1.7320508075688772,0 -0.8660254037844386,0.5" stroke-width="0.2%" stroke="black" fill="lightgrey" />
    <polygon points="0.8660254037844386,3.232050807568877 0.8660254037844386,4.232050807568877 0,4.732050807568877 0.5,5.598076211353316 0,6.464101615137754 -0.8660254037844386,5.964101615137754 -0.8660254037844386,4.964101615137754 -1.8660254037844386,4.964101615137754 -2.3660254037844384,4.098076211353316 -2.8660254037844384,3.232050807568877 -2.3660254037844384,2.3660254037844384 -1.5,2.8660254037844384 -0.6339745962155614,2.3660254037844384 -0.1339745962155614,3.232050807568877" stroke-width="0.2%" stroke="black" fill="lightgrey" />
    <polygon points="0,6.464101615137754 -0.5,7.330127018922193 -1.5,7.330127018922193 -1.5,8.330127018922193 -2.3660254037844384,8.830127018922193 -2.8660254037844384,7.964101615137754 -2.3660254037844384,7.098076211353316 -3.232050807568877,6.598076211353316 -3.232050807568877,5.598076211353316 -3.232050807568877,4.598076211353316 -2.3660254037844384,4.098076211353316 -1.8660254037844386,4.964101615137754 -0.8660254037844386,4.964101615137754 -0.8660254037844386,5.964101615137754" stroke-width="0.2%" stroke="black" fill="lightgrey" />
    <polygon points="-2.3660254037844384,7.098076211353316 -2.8660254037844384,7.964101615137754 -3.8660254037844384,7.964101615137754 -3.8660254037844384,8.964101615137753 -4.732050807568877,9.464101615137753 -5.232050807568877,8.598076211353316 -4.732050807568877,7.732050807568877 -5.598076211353316,7.232050807568877 -5.598076211353316,6.232050807568877 -5.598076211353316,5.232050807568877 -4.732050807568877,4.732050807568877 -4.232050807568877,5.598076211353316 -3.232050807568877,5.598076211353316 -3.232050807568877,6.598076211353316" stroke-width="0.2%" stroke="black" fill="lightgrey" />
    <polygon points="-3.232050807568877,5.598076211353316 -4.232050807568877,5.598076211353316 -4.732050807568877,4.732050807568877 -5.598076211353316,5.232050807568877 -6.464101615137754,4.732050807568877 -5.964101615137754,3.8660254037844384 -4.964101615137754,3.8660254037844384 -4.964101615137754,2.8660254037844384 -4.098076211353316,2.3660254037844384 -3.232050807568877,1.8660254037844386 -2.3660254037844384,2.3660254037844384 -2.8660254037844384,3.232050807568877 -2.3660254037844384,4.098076211353316 -3.232050807568877,4.598076211353316" stroke-width="0.2%" stroke="black" fill="lightgrey" />

  </g>
</svg>
