
<svg viewBox="-8 -8 16 16" xmlns="http://www.w3.org/2000/svg" width="240" height="240">
  <g transform="scale(1 -1)">
  <rect x="-8" y="-8" width="16" height="16" fill="darkgrey" stroke-width="0" />
    <polygon points="-2,-2 -1,-2 -0.5,-1.1339745962155614 -1,-0.2679491924311228 -2,-0.2679491924311228 -2.5,-1.1339745962155614" stroke-width="0.2%" stroke="black" fill="lightgrey" />
    <polygon points="2,-2 3,-2 2.5,-1.1339745962155614" stroke-width="0.2%" stroke="black" fill="lightgrey" />
    <polygon points="-2,2 -1,2 -0.5,2.8660254037844384 0.3660254037844386,2.3660254037844384 1.2320508075688772,2.8660254037844384 0.7320508075688772,3.732050807568877 -0.2679491924311228,3.732050807568877 -0.2679491924311228,4.732050807568877 -1.1339745962155614,5.232050807568877 -2,5.732050807568877 -2.8660254037844384,5.232050807568877 -2.3660254037844384,4.366025403784438 -2.8660254037844384,3.5 -2,3" stroke-width="0.2%" stroke="black" fill="lightgrey" />
    <polygon points="2,2 4,2 4.5,2.8660254037844384 3.5,4.598076211353316 2.5,4.598076211353316 1.5,2.8660254037844384" stroke-width="0.2%" stroke="black" fill="lightgrey" />

  </g>
</svg>
