
<svg viewBox="-10 -10 20 20" xmlns="http://www.w3.org/2000/svg" width="800" height="800">
  <g transform="scale(1 -1)">
  <rect x="-10" y="-10" width="20" height="20" fill="darkgrey" stroke-width="0" />
    <polygon points="-0.5,-1.2071067811865475 0.5,-1.2071067811865475 1.2071067811865475,-0.5 1.2071067811865475,0.5 0.5,1.2071067811865475 -0.5,1.2071067811865475 -1.2071067811865475,0.5 -1.2071067811865475,-0.5" stroke-width="0.2%" stroke="black" fill="lightgrey" />
    <polygon points="1.2071067811865475,-0.5 1.9142135623730951,-1.2071067811865475 2.914213562373095,-1.2071067811865475 3.621320343559643,-0.5 3.621320343559643,0.5 2.914213562373095,1.2071067811865475 1.9142135623730951,1.2071067811865475 1.2071067811865475,0.5" stroke-width="0.2%" stroke="black" fill="lightgrey" />
    <polygon points="1.2071067811865475,0.5 1.9142135623730951,1.2071067811865475 1.2071067811865475,1.9142135623730951 0.5,1.2071067811865475" stroke-width="0.2%" stroke="black" fill="lightgrey" />
    <polygon points="3.621320343559643,-0.5 4.32842712474619,-1.2071067811865475 5.32842712474619,-1.2071067811865475 6.035533905932738,-0.5 6.035533905932738,0.5 5.32842712474619,1.2071067811865475 4.32842712474619,1.2071067811865475 3.621320343559643,0.5" stroke-width="0.2%" stroke="black" fill="lightgrey" />
    <polygon points="3.621320343559643,0.5 4.32842712474619,1.2071067811865475 3.621320343559643,1.9142135623730951 2.914213562373095,1.2071067811865475" stroke-width="0.2%" stroke="black" fill="lightgrey" />
    <polygon points="2.914213562373095,1.2071067811865475 3.621320343559643,1.9142135623730951 3.621320343559643,2.914213562373095 2.914213562373095,3.621320343559643 1.9142135623730951,3.621320343559643 1.2071067811865475,2.914213562373095 1.2071067811865475,1.9142135623730951 1.9142135623730951,1.2071067811865475" stroke-width="0.2%" stroke="black" fill="lightgrey" />
    <polygon points="1.2071067811865475,2.914213562373095 1.9142135623730951,3.621320343559643 1.2071067811865475,4.32842712474619 0.5,3.621320343559643" stroke-width="0.2%" stroke="black" fill="lightgrey" />
    <polygon points="6.035533905932738,-0.5 6.742640687119286,-1.2071067811865475 7.742640687119286,-1.2071067811865475 8.449747468305834,-0.5 8.449747468305834,0.5 7.742640687119286,1.2071067811865475 6.742640687119286,1.2071067811865475 6.035533905932738,0.5" stroke-width="0.2%" stroke="black" fill="lightgrey" />
    <polygon points="6.035533905932738,0.5 6.742640687119286,1.2071067811865475 6.035533905932738,1.9142135623730951 5.32842712474619,1.2071067811865475" stroke-width="0.2%" stroke="black" fill="lightgrey" />
    <polygon points="5.32842712474619,1.2071067811865475 6.035533905932738,1.9142135623730951 6.035533905932738,2.914213562373095 5.32842712474619,3.621320343559643 4.32842712474619,3.621320343559643 3.621320343559643,2.914213562373095 3.621320343559643,1.9142135623730951 4.32842712474619,1.2071067811865475" stroke-width="0.2%" stroke="black" fill="lightgrey" />
    <polygon points="3.621320343559643,2.914213562373095 4.32842712474619,3.621320343559643 3.621320343559643,4.32842712474619 2.914213562373095,3.621320343559643" stroke-width="0.2%" stroke="black" fill="lightgrey" />
    <polygon points="2.914213562373095,3.621320343559643 3.621320343559643,4.32842712474619 3.621320343559643,5.32842712474619 2.914213562373095,6.035533905932738 1.9142135623730951,6.035533905932738 1.2071067811865475,5.32842712474619 1.2071067811865475,4.32842712474619 1.9142135623730951,3.621320343559643" stroke-width="0.2%" stroke="black" fill="lightgrey" />
    <polygon points="1.2071067811865475,5.32842712474619 1.9142135623730951,6.035533905932738 1.2071067811865475,6.742640687119286 0.5,6.035533905932738" stroke-width="0.2%" stroke="black" fill="lightgrey" />
    <polygon points="8.449747468305834,-0.5 9.15685424949238,-1.2071067811865475 10.15685424949238,-1.2071067811865475 10.86396103067893,-0.5 10.86396103067893,0.5 10.15685424949238,1.2071067811865475 9.15685424949238,1.2071067811865475 8.449747468305834,0.5" stroke-width="0.2%" stroke="black" fill="lightgrey" />
    <polygon points="8.449747468305834,0.5 9.15685424949238,1.2071067811865475 8.449747468305834,1.9142135623730951 7.742640687119286,1.2071067811865475" stroke-width="0.2%" stroke="black" fill="lightgrey" />
    <polygon points="7.742640687119286,1.2071067811865475 8.449747468305834,1.9142135623730951 8.449747468305834,2.914213562373095 7.742640687119286,3.621320343559643 6.742640687119286,3.621320343559643 6.035533905932738,2.914213562373095 6.035533905932738,1.9142135623730951 6.742640687119286,1.2071067811865475" stroke-width="0.2%" stroke="black" fill="lightgrey" />
    <polygon points="6.035533905932738,2.914213562373095 6.742640687119286,3.621320343559643 6.035533905932738,4.32842712474619 5.32842712474619,3.621320343559643" stroke-width="0.2%" stroke="black" fill="lightgrey" />
    <polygon points="5.32842712474619,3.621320343559643 6.035533905932738,4.32842712474619 6.035533905932738,5.32842712474619 5.32842712474619,6.035533905932738 4.32842712474619,6.035533905932738 3.621320343559643,5.32842712474619 3.621320343559643,4.32842712474619 4.32842712474619,3.621320343559643" stroke-width="0.2%" stroke="black" fill="lightgrey" />
    <polygon points="3.621320343559643,5.32842712474619 4.32842712474619,6.035533905932738 3.621320343559643,6.742640687119286 2.914213562373095,6.035533905932738" stroke-width="0.2%" stroke="black" fill="lightgrey" />
    <polygon points="2.914213562373095,6.035533905932738 3.621320343559643,6.742640687119286 3.621320343559643,7.742640687119286 2.914213562373095,8.449747468305834 1.9142135623730951,8.449747468305834 1.2071067811865475,7.742640687119286 1.2071067811865475,6.742640687119286 1.9142135623730951,6.035533905932738" stroke-width="0.2%" stroke="black" fill="lightgrey" />
    <polygon points="1.2071067811865475,7.742640687119286 1.9142135623730951,8.449747468305834 1.2071067811865475,9.15685424949238 0.5,8.449747468305834" stroke-width="0.2%" stroke="black" fill="lightgrey" />
    <polygon points="10.86396103067893,-0.5 11.571067811865476,-1.2071067811865475 12.571067811865476,-1.2071067811865475 13.278174593052023,-0.5 13.278174593052023,0.5 12.571067811865476,1.2071067811865475 11.571067811865476,1.2071067811865475 10.86396103067893,0.5" stroke-width="0.2%" stroke="black" fill="lightgrey" />
    <polygon points="10.86396103067893,0.5 11.571067811865476,1.2071067811865475 10.86396103067893,1.9142135623730951 10.15685424949238,1.2071067811865475" stroke-width="0.2%" stroke="black" fill="lightgrey" />
    <polygon points="10.15685424949238,1.2071067811865475 10.86396103067893,1.9142135623730951 10.86396103067893,2.914213562373095 10.15685424949238,3.621320343559643 9.15685424949238,3.621320343559643 8.449747468305834,2.914213562373095 8.449747468305834,1.9142135623730951 9.15685424949238,1.2071067811865475" stroke-width="0.2%" stroke="black" fill="lightgrey" />
    <polygon points="8.449747468305834,2.914213562373095 9.15685424949238,3.621320343559643 8.449747468305834,4.32842712474619 7.742640687119286,3.621320343559643" stroke-width="0.2%" stroke="black" fill="lightgrey" />
    <polygon points="7.742640687119286,3.621320343559643 8.449747468305834,4.32842712474619 8.449747468305834,5.32842712474619 7.742640687119286,6.035533905932738 6.742640687119286,6.035533905932738 6.035533905932738,5.32842712474619 6.035533905932738,4.32842712474619 6.742640687119286,3.621320343559643" stroke-width="0.2%" stroke="black" fill="lightgrey" />
    <polygon points="6.035533905932738,5.32842712474619 6.742640687119286,6.035533905932738 6.035533905932738,6.742640687119286 5.32842712474619,6.035533905932738" stroke-width="0.2%" stroke="black" fill="lightgrey" />
    <polygon points="5.32842712474619,6.035533905932738 6.035533905932738,6.742640687119286 6.035533905932738,7.742640687119286 5.32842712474619,8.449747468305834 4.32842712474619,8.449747468305834 3.621320343559643,7.742640687119286 3.621320343559643,6.742640687119286 4.32842712474619,6.035533905932738" stroke-width="0.2%" stroke="black" fill="lightgrey" />
    <polygon points="3.621320343559643,7.742640687119286 4.32842712474619,8.449747468305834 3.621320343559643,9.15685424949238 2.914213562373095,8.449747468305834" stroke-width="0.2%" stroke="black" fill="lightgrey" />
    <polygon points="2.914213562373095,8.449747468305834 3.621320343559643,9.15685424949238 3.621320343559643,10.15685424949238 2.914213562373095,10.86396103067893 1.9142135623730951,10.86396103067893 1.2071067811865475,10.15685424949238 1.2071067811865475,9.15685424949238 1.9142135623730951,8.449747468305834" stroke-width="0.2%" stroke="black" fill="lightgrey" />
    <polygon points="1.2071067811865475,10.15685424949238 1.9142135623730951,10.86396103067893 1.2071067811865475,11.571067811865476 0.5,10.86396103067893" stroke-width="0.2%" stroke="black" fill="lightgrey" />
    <polygon points="13.278174593052023,-0.5 13.985281374238571,-1.2071067811865475 14.985281374238571,-1.2071067811865475 15.69238815542512,-0.5 15.69238815542512,0.5 14.985281374238571,1.2071067811865475 13.985281374238571,1.2071067811865475 13.278174593052023,0.5" stroke-width="0.2%" stroke="black" fill="lightgrey" />
    <polygon points="13.278174593052023,0.5 13.985281374238571,1.2071067811865475 13.278174593052023,1.9142135623730951 12.571067811865476,1.2071067811865475" stroke-width="0.2%" stroke="black" fill="lightgrey" />
    <polygon points="12.571067811865476,1.2071067811865475 13.278174593052023,1.9142135623730951 13.278174593052023,2.914213562373095 12.571067811865476,3.621320343559643 11.571067811865476,3.621320343559643 10.86396103067893,2.914213562373095 10.86396103067893,1.9142135623730951 11.571067811865476,1.2071067811865475" stroke-width="0.2%" stroke="black" fill="lightgrey" />
    <polygon points="10.86396103067893,2.914213562373095 11.571067811865476,3.621320343559643 10.86396103067893,4.32842712474619 10.15685424949238,3.621320343559643" stroke-width="0.2%" stroke="black" fill="lightgrey" />
    <polygon points="10.15685424949238,3.621320343559643 10.86396103067893,4.32842712474619 10.86396103067893,5.32842712474619 10.15685424949238,6.035533905932738 9.15685424949238,6.035533905932738 8.449747468305834,5.32842712474619 8.449747468305834,4.32842712474619 9.15685424949238,3.621320343559643" stroke-width="0.2%" stroke="black" fill="lightgrey" />
    <polygon points="8.449747468305834,5.32842712474619 9.15685424949238,6.035533905932738 8.449747468305834,6.742640687119286 7.742640687119286,6.035533905932738" stroke-width="0.2%" stroke="black" fill="lightgrey" />
    <polygon points="7.742640687119286,6.035533905932738 8.449747468305834,6.742640687119286 8.449747468305834,7.742640687119286 7.742640687119286,8.449747468305834 6.742640687119286,8.449747468305834 6.035533905932738,7.742640687119286 6.035533905932738,6.742640687119286 6.742640687119286,6.035533905932738" stroke-width="0.2%" stroke="black" fill="lightgrey" />
    <polygon points="6.035533905932738,7.742640687119286 6.742640687119286,8.449747468305834 6.035533905932738,9.15685424949238 5.32842712474619,8.449747468305834" stroke-width="0.2%" stroke="black" fill="lightgrey" />
    <polygon points="5.32842712474619,8.449747468305834 6.035533905932738,9.15685424949238 6.035533905932738,10.15685424949238 5.32842712474619,10.86396103067893 4.32842712474619,10.86396103067893 3.621320343559643,10.15685424949238 3.621320343559643,9.15685424949238 4.32842712474619,8.449747468305834" stroke-width="0.2%" stroke="black" fill="lightgrey" />
    <polygon points="3.621320343559643,10.15685424949238 4.32842712474619,10.86396103067893 3.621320343559643,11.571067811865476 2.914213562373095,10.86396103067893" stroke-width="0.2%" stroke="black" fill="lightgrey" />
    <polygon points="2.914213562373095,10.86396103067893 3.621320343559643,11.571067811865476 3.621320343559643,12.571067811865476 2.914213562373095,13.278174593052023 1.9142135623730951,13.278174593052023 1.2071067811865475,12.571067811865476 1.2071067811865475,11.571067811865476 1.9142135623730951,10.86396103067893" stroke-width="0.2%" stroke="black" fill="lightgrey" />
    <polygon points="1.2071067811865475,12.571067811865476 1.9142135623730951,13.278174593052023 1.2071067811865475,13.985281374238571 0.5,13.278174593052023" stroke-width="0.2%" stroke="black" fill="lightgrey" />
    <polygon points="15.69238815542512,-0.5 16.399494936611667,-1.2071067811865475 17.399494936611667,-1.2071067811865475 18.106601717798213,-0.5 18.106601717798213,0.5 17.399494936611667,1.2071067811865475 16.399494936611667,1.2071067811865475 15.69238815542512,0.5" stroke-width="0.2%" stroke="black" fill="lightgrey" />
    <polygon points="15.69238815542512,0.5 16.399494936611667,1.2071067811865475 15.69238815542512,1.9142135623730951 14.985281374238571,1.2071067811865475" stroke-width="0.2%" stroke="black" fill="lightgrey" />
    <polygon points="14.985281374238571,1.2071067811865475 15.69238815542512,1.9142135623730951 15.69238815542512,2.914213562373095 14.985281374238571,3.621320343559643 13.985281374238571,3.621320343559643 13.278174593052023,2.914213562373095 13.278174593052023,1.9142135623730951 13.985281374238571,1.2071067811865475" stroke-width="0.2%" stroke="black" fill="lightgrey" />
    <polygon points="13.278174593052023,2.914213562373095 13.985281374238571,3.621320343559643 13.278174593052023,4.32842712474619 12.571067811865476,3.621320343559643" stroke-width="0.2%" stroke="black" fill="lightgrey" />
    <polygon points="12.571067811865476,3.621320343559643 13.278174593052023,4.32842712474619 13.278174593052023,5.32842712474619 12.571067811865476,6.035533905932738 11.571067811865476,6.035533905932738 10.86396103067893,5.32842712474619 10.86396103067893,4.32842712474619 11.571067811865476,3.621320343559643" stroke-width="0.2%" stroke="black" fill="lightgrey" />
    <polygon points="10.86396103067893,5.32842712474619 11.571067811865476,6.035533905932738 10.86396103067893,6.742640687119286 10.15685424949238,6.035533905932738" stroke-width="0.2%" stroke="black" fill="lightgrey" />
    <polygon points="10.15685424949238,6.035533905932738 10.86396103067893,6.742640687119286 10.86396103067893,7.742640687119286 10.15685424949238,8.449747468305834 9.15685424949238,8.449747468305834 8.449747468305834,7.742640687119286 8.449747468305834,6.742640687119286 9.15685424949238,6.035533905932738" stroke-width="0.2%" stroke="black" fill="lightgrey" />
    <polygon points="8.449747468305834,7.742640687119286 9.15685424949238,8.449747468305834 8.449747468305834,9.15685424949238 7.742640687119286,8.449747468305834" stroke-width="0.2%" stroke="black" fill="lightgrey" />
    <polygon points="7.742640687119286,8.449747468305834 8.449747468305834,9.15685424949238 8.449747468305834,10.15685424949238 7.742640687119286,10.86396103067893 6.742640687119286,10.86396103067893 6.035533905932738,10.15685424949238 6.035533905932738,9.15685424949238 6.742640687119286,8.449747468305834" stroke-width="0.2%" stroke="black" fill="lightgrey" />
    <polygon points="6.035533905932738,10.15685424949238 6.742640687119286,10.86396103067893 6.035533905932738,11.571067811865476 5.32842712474619,10.86396103067893" stroke-width="0.2%" stroke="black" fill="lightgrey" />
    <polygon points="5.32842712474619,10.86396103067893 6.035533905932738,11.571067811865476 6.035533905932738,12.571067811865476 5.32842712474619,13.278174593052023 4.32842712474619,13.278174593052023 3.621320343559643,12.571067811865476 3.621320343559643,11.571067811865476 4.32842712474619,10.86396103067893" stroke-width="0.2%" stroke="black" fill="lightgrey" />
    <polygon points="3.621320343559643,12.571067811865476 4.32842712474619,13.278174593052023 3.621320343559643,13.985281374238571 2.914213562373095,13.278174593052023" stroke-width="0.2%" stroke="black" fill="lightgrey" />
    <polygon points="2.914213562373095,13.278174593052023 3.621320343559643,13.985281374238571 3.621320343559643,14.985281374238571 2.914213562373095,15.69238815542512 1.9142135623730951,15.69238815542512 1.2071067811865475,14.985281374238571 1.2071067811865475,13.985281374238571 1.9142135623730951,13.278174593052023" stroke-width="0.2%" stroke="black" fill="lightgrey" />
    <polygon points="1.2071067811865475,14.985281374238571 1.9142135623730951,15.69238815542512 1.2071067811865475,16.399494936611667 0.5,15.69238815542512" stroke-width="0.2%" stroke="black" fill="lightgrey" />
    <polygon points="18.106601717798213,-0.5 18.81370849898476,-1.2071067811865475 19.81370849898476,-1.2071067811865475 20.52081528017131,-0.5 20.52081528017131,0.5 19.81370849898476,1.2071067811865475 18.81370849898476,1.2071067811865475 18.106601717798213,0.5" stroke-width="0.2%" stroke="black" fill="lightgrey" />
    <polygon points="18.106601717798213,0.5 18.81370849898476,1.2071067811865475 18.106601717798213,1.9142135623730951 17.399494936611667,1.2071067811865475" stroke-width="0.2%" stroke="black" fill="lightgrey" />
    <polygon points="17.399494936611667,1.2071067811865475 18.106601717798213,1.9142135623730951 18.106601717798213,2.914213562373095 17.399494936611667,3.621320343559643 16.399494936611667,3.621320343559643 15.69238815542512,2.914213562373095 15.69238815542512,1.9142135623730951 16.399494936611667,1.2071067811865475" stroke-width="0.2%" stroke="black" fill="lightgrey" />
    <polygon points="15.69238815542512,2.914213562373095 16.399494936611667,3.621320343559643 15.69238815542512,4.32842712474619 14.985281374238571,3.621320343559643" stroke-width="0.2%" stroke="black" fill="lightgrey" />
    <polygon points="14.985281374238571,3.621320343559643 15.69238815542512,4.32842712474619 15.69238815542512,5.32842712474619 14.985281374238571,6.035533905932738 13.985281374238571,6.035533905932738 13.278174593052023,5.32842712474619 13.278174593052023,4.32842712474619 13.985281374238571,3.621320343559643" stroke-width="0.2%" stroke="black" fill="lightgrey" />
    <polygon points="13.278174593052023,5.32842712474619 13.985281374238571,6.035533905932738 13.278174593052023,6.742640687119286 12.571067811865476,6.035533905932738" stroke-width="0.2%" stroke="black" fill="lightgrey" />
    <polygon points="12.571067811865476,6.035533905932738 13.278174593052023,6.742640687119286 13.278174593052023,7.742640687119286 12.571067811865476,8.449747468305834 11.571067811865476,8.449747468305834 10.86396103067893,7.742640687119286 10.86396103067893,6.742640687119286 11.571067811865476,6.035533905932738" stroke-width="0.2%" stroke="black" fill="lightgrey" />
    <polygon points="10.86396103067893,7.742640687119286 11.571067811865476,8.449747468305834 10.86396103067893,9.15685424949238 10.15685424949238,8.449747468305834" stroke-width="0.2%" stroke="black" fill="lightgrey" />
    <polygon points="10.15685424949238,8.449747468305834 10.86396103067893,9.15685424949238 10.86396103067893,10.15685424949238 10.15685424949238,10.86396103067893 9.15685424949238,10.86396103067893 8.449747468305834,10.15685424949238 8.449747468305834,9.15685424949238 9.15685424949238,8.449747468305834" stroke-width="0.2%" stroke="black" fill="lightgrey" />
    <polygon points="8.449747468305834,10.15685424949238 9.15685424949238,10.86396103067893 8.449747468305834,11.571067811865476 7.742640687119286,10.86396103067893" stroke-width="0.2%" stroke="black" fill="lightgrey" />
    <polygon points="7.742640687119286,10.86396103067893 8.449747468305834,11.571067811865476 8.449747468305834,12.571067811865476 7.742640687119286,13.278174593052023 6.742640687119286,13.278174593052023 6.035533905932738,12.571067811865476 6.035533905932738,11.571067811865476 6.742640687119286,10.86396103067893" stroke-width="0.2%" stroke="black" fill="lightgrey" />
    <polygon points="6.035533905932738,12.571067811865476 6.742640687119286,13.278174593052023 6.035533905932738,13.985281374238571 5.32842712474619,13.278174593052023" stroke-width="0.2%" stroke="black" fill="lightgrey" />
    <polygon points="5.32842712474619,13.278174593052023 6.035533905932738,13.985281374238571 6.035533905932738,14.985281374238571 5.32842712474619,15.69238815542512 4.32842712474619,15.69238815542512 3.621320343559643,14.985281374238571 3.621320343559643,13.985281374238571 4.32842712474619,13.278174593052023" stroke-width="0.2%" stroke="black" fill="lightgrey" />
    <polygon points="3.621320343559643,14.985281374238571 4.32842712474619,15.69238815542512 3.621320343559643,16.399494936611667 2.914213562373095,15.69238815542512" stroke-width="0.2%" stroke="black" fill="lightgrey" />
    <polygon points="2.914213562373095,15.69238815542512 3.621320343559643,16.399494936611667 3.621320343559643,17.399494936611667 2.914213562373095,18.106601717798213 1.9142135623730951,18.106601717798213 1.2071067811865475,17.399494936611667 1.2071067811865475,16.399494936611667 1.9142135623730951,15.69238815542512" stroke-width="0.2%" stroke="black" fill="lightgrey" />
    <polygon points="1.2071067811865475,17.399494936611667 1.9142135623730951,18.106601717798213 1.2071067811865475,18.81370849898476 0.5,18.106601717798213" stroke-width="0.2%" stroke="black" fill="lightgrey" />
    <polygon points="0.5,1.2071067811865475 1.2071067811865475,1.9142135623730951 1.2071067811865475,2.914213562373095 0.5,3.621320343559643 -0.5,3.621320343559643 -1.2071067811865475,2.914213562373095 -1.2071067811865475,1.9142135623730951 -0.5,1.2071067811865475" stroke-width="0.2%" stroke="black" fill="lightgrey" />
    <polygon points="-0.5,1.2071067811865475 -1.2071067811865475,1.9142135623730951 -1.9142135623730951,1.2071067811865475 -1.2071067811865475,0.5" stroke-width="0.2%" stroke="black" fill="lightgrey" />
    <polygon points="0.5,3.621320343559643 1.2071067811865475,4.32842712474619 1.2071067811865475,5.32842712474619 0.5,6.035533905932738 -0.5,6.035533905932738 -1.2071067811865475,5.32842712474619 -1.2071067811865475,4.32842712474619 -0.5,3.621320343559643" stroke-width="0.2%" stroke="black" fill="lightgrey" />
    <polygon points="-0.5,3.621320343559643 -1.2071067811865475,4.32842712474619 -1.9142135623730951,3.621320343559643 -1.2071067811865475,2.914213562373095" stroke-width="0.2%" stroke="black" fill="lightgrey" />
    <polygon points="-1.2071067811865475,2.914213562373095 -1.9142135623730951,3.621320343559643 -2.914213562373095,3.621320343559643 -3.621320343559643,2.914213562373095 -3.621320343559643,1.9142135623730951 -2.914213562373095,1.2071067811865475 -1.9142135623730951,1.2071067811865475 -1.2071067811865475,1.9142135623730951" stroke-width="0.2%" stroke="black" fill="lightgrey" />
    <polygon points="-2.914213562373095,1.2071067811865475 -3.621320343559643,1.9142135623730951 -4.32842712474619,1.2071067811865475 -3.621320343559643,0.5" stroke-width="0.2%" stroke="black" fill="lightgrey" />
    <polygon points="0.5,6.035533905932738 1.2071067811865475,6.742640687119286 1.2071067811865475,7.742640687119286 0.5,8.449747468305834 -0.5,8.449747468305834 -1.2071067811865475,7.742640687119286 -1.2071067811865475,6.742640687119286 -0.5,6.035533905932738" stroke-width="0.2%" stroke="black" fill="lightgrey" />
    <polygon points="-0.5,6.035533905932738 -1.2071067811865475,6.742640687119286 -1.9142135623730951,6.035533905932738 -1.2071067811865475,5.32842712474619" stroke-width="0.2%" stroke="black" fill="lightgrey" />
    <polygon points="-1.2071067811865475,5.32842712474619 -1.9142135623730951,6.035533905932738 -2.914213562373095,6.035533905932738 -3.621320343559643,5.32842712474619 -3.621320343559643,4.32842712474619 -2.914213562373095,3.621320343559643 -1.9142135623730951,3.621320343559643 -1.2071067811865475,4.32842712474619" stroke-width="0.2%" stroke="black" fill="lightgrey" />
    <polygon points="-2.914213562373095,3.621320343559643 -3.621320343559643,4.32842712474619 -4.32842712474619,3.621320343559643 -3.621320343559643,2.914213562373095" stroke-width="0.2%" stroke="black" fill="lightgrey" />
    <polygon points="-3.621320343559643,2.914213562373095 -4.32842712474619,3.621320343559643 -5.32842712474619,3.621320343559643 -6.035533905932738,2.914213562373095 -6.035533905932738,1.9142135623730951 -5.32842712474619,1.2071067811865475 -4.32842712474619,1.2071067811865475 -3.621320343559643,1.9142135623730951" stroke-width="0.2%" stroke="black" fill="lightgrey" />
    <polygon points="-5.32842712474619,1.2071067811865475 -6.035533905932738,1.9142135623730951 -6.742640687119286,1.2071067811865475 -6.035533905932738,0.5" stroke-width="0.2%" stroke="black" fill="lightgrey" />
    <polygon points="0.5,8.449747468305834 1.2071067811865475,9.15685424949238 1.2071067811865475,10.15685424949238 0.5,10.86396103067893 -0.5,10.86396103067893 -1.2071067811865475,10.15685424949238 -1.2071067811865475,9.15685424949238 -0.5,8.449747468305834" stroke-width="0.2%" stroke="black" fill="lightgrey" />
    <polygon points="-0.5,8.449747468305834 -1.2071067811865475,9.15685424949238 -1.9142135623730951,8.449747468305834 -1.2071067811865475,7.742640687119286" stroke-width="0.2%" stroke="black" fill="lightgrey" />
    <polygon points="-1.2071067811865475,7.742640687119286 -1.9142135623730951,8.449747468305834 -2.914213562373095,8.449747468305834 -3.621320343559643,7.742640687119286 -3.621320343559643,6.742640687119286 -2.914213562373095,6.035533905932738 -1.9142135623730951,6.035533905932738 -1.2071067811865475,6.742640687119286" stroke-width="0.2%" stroke="black" fill="lightgrey" />
    <polygon points="-2.914213562373095,6.035533905932738 -3.621320343559643,6.742640687119286 -4.32842712474619,6.035533905932738 -3.621320343559643,5.32842712474619" stroke-width="0.2%" stroke="black" fill="lightgrey" />
    <polygon points="-3.621320343559643,5.32842712474619 -4.32842712474619,6.035533905932738 -5.32842712474619,6.035533905932738 -6.035533905932738,5.32842712474619 -6.035533905932738,4.32842712474619 -5.32842712474619,3.621320343559643 -4.32842712474619,3.621320343559643 -3.621320343559643,4.32842712474619" stroke-width="0.2%" stroke="black" fill="lightgrey" />
    <polygon points="-5.32842712474619,3.621320343559643 -6.035533905932738,4.32842712474619 -6.742640687119286,3.621320343559643 -6.035533905932738,2.914213562373095" stroke-width="0.2%" stroke="black" fill="lightgrey" />
    <polygon points="-6.035533905932738,2.914213562373095 -6.742640687119286,3.621320343559643 -7.742640687119286,3.621320343559643 -8.449747468305834,2.914213562373095 -8.449747468305834,1.9142135623730951 -7.742640687119286,1.2071067811865475 -6.742640687119286,1.2071067811865475 -6.035533905932738,1.9142135623730951" stroke-width="0.2%" stroke="black" fill="lightgrey" />
    <polygon points="-7.742640687119286,1.2071067811865475 -8.449747468305834,1.9142135623730951 -9.15685424949238,1.2071067811865475 -8.449747468305834,0.5" stroke-width="0.2%" stroke="black" fill="lightgrey" />
    <polygon points="0.5,10.86396103067893 1.2071067811865475,11.571067811865476 1.2071067811865475,12.571067811865476 0.5,13.278174593052023 -0.5,13.278174593052023 -1.2071067811865475,12.571067811865476 -1.2071067811865475,11.571067811865476 -0.5,10.86396103067893" stroke-width="0.2%" stroke="black" fill="lightgrey" />
    <polygon points="-0.5,10.86396103067893 -1.2071067811865475,11.571067811865476 -1.9142135623730951,10.86396103067893 -1.2071067811865475,10.15685424949238" stroke-width="0.2%" stroke="black" fill="lightgrey" />
    <polygon points="-1.2071067811865475,10.15685424949238 -1.9142135623730951,10.86396103067893 -2.914213562373095,10.86396103067893 -3.621320343559643,10.15685424949238 -3.621320343559643,9.15685424949238 -2.914213562373095,8.449747468305834 -1.9142135623730951,8.449747468305834 -1.2071067811865475,9.15685424949238" stroke-width="0.2%" stroke="black" fill="lightgrey" />
    <polygon points="-2.914213562373095,8.449747468305834 -3.621320343559643,9.15685424949238 -4.32842712474619,8.449747468305834 -3.621320343559643,7.742640687119286" stroke-width="0.2%" stroke="black" fill="lightgrey" />
    <polygon points="-3.621320343559643,7.742640687119286 -4.32842712474619,8.449747468305834 -5.32842712474619,8.449747468305834 -6.035533905932738,7.742640687119286 -6.035533905932738,6.742640687119286 -5.32842712474619,6.035533905932738 -4.32842712474619,6.035533905932738 -3.621320343559643,6.742640687119286" stroke-width="0.2%" stroke="black" fill="lightgrey" />
    <polygon points="-5.32842712474619,6.035533905932738 -6.035533905932738,6.742640687119286 -6.742640687119286,6.035533905932738 -6.035533905932738,5.32842712474619" stroke-width="0.2%" stroke="black" fill="lightgrey" />
    <polygon points="-6.035533905932738,5.32842712474619 -6.742640687119286,6.035533905932738 -7.742640687119286,6.035533905932738 -8.449747468305834,5.32842712474619 -8.449747468305834,4.32842712474619 -7.742640687119286,3.621320343559643 -6.742640687119286,3.621320343559643 -6.035533905932738,4.32842712474619" stroke-width="0.2%" stroke="black" fill="lightgrey" />
    <polygon points="-7.742640687119286,3.621320343559643 -8.449747468305834,4.32842712474619 -9.15685424949238,3.621320343559643 -8.449747468305834,2.914213562373095" stroke-width="0.2%" stroke="black" fill="lightgrey" />
    <polygon points="-8.449747468305834,2.914213562373095 -9.15685424949238,3.621320343559643 -10.15685424949238,3.621320343559643 -10.86396103067893,2.914213562373095 -10.86396103067893,1.9142135623730951 -10.15685424949238,1.2071067811865475 -9.15685424949238,1.2071067811865475 -8.449747468305834,1.9142135623730951" stroke-width="0.2%" stroke="black" fill="lightgrey" />
    <polygon points="-10.15685424949238,1.2071067811865475 -10.86396103067893,1.9142135623730951 -11.571067811865476,1.2071067811865475 -10.86396103067893,0.5" stroke-width="0.2%" stroke="black" fill="lightgrey" />
    <polygon points="0.5,13.278174593052023 1.2071067811865475,13.985281374238571 1.2071067811865475,14.985281374238571 0.5,15.69238815542512 -0.5,15.69238815542512 -1.2071067811865475,14.985281374238571 -1.2071067811865475,13.985281374238571 -0.5,13.278174593052023" stroke-width="0.2%" stroke="black" fill="lightgrey" />
    <polygon points="-0.5,13.278174593052023 -1.2071067811865475,13.985281374238571 -1.9142135623730951,13.278174593052023 -1.2071067811865475,12.571067811865476" stroke-width="0.2%" stroke="black" fill="lightgrey" />
    <polygon points="-1.2071067811865475,12.571067811865476 -1.9142135623730951,13.278174593052023 -2.914213562373095,13.278174593052023 -3.621320343559643,12.571067811865476 -3.621320343559643,11.571067811865476 -2.914213562373095,10.86396103067893 -1.9142135623730951,10.86396103067893 -1.2071067811865475,11.571067811865476" stroke-width="0.2%" stroke="black" fill="lightgrey" />
    <polygon points="-2.914213562373095,10.86396103067893 -3.621320343559643,11.571067811865476 -4.32842712474619,10.86396103067893 -3.621320343559643,10.15685424949238" stroke-width="0.2%" stroke="black" fill="lightgrey" />
    <polygon points="-3.621320343559643,10.15685424949238 -4.32842712474619,10.86396103067893 -5.32842712474619,10.86396103067893 -6.035533905932738,10.15685424949238 -6.035533905932738,9.15685424949238 -5.32842712474619,8.449747468305834 -4.32842712474619,8.449747468305834 -3.621320343559643,9.15685424949238" stroke-width="0.2%" stroke="black" fill="lightgrey" />
    <polygon points="-5.32842712474619,8.449747468305834 -6.035533905932738,9.15685424949238 -6.742640687119286,8.449747468305834 -6.035533905932738,7.742640687119286" stroke-width="0.2%" stroke="black" fill="lightgrey" />
    <polygon points="-6.035533905932738,7.742640687119286 -6.742640687119286,8.449747468305834 -7.742640687119286,8.449747468305834 -8.449747468305834,7.742640687119286 -8.449747468305834,6.742640687119286 -7.742640687119286,6.035533905932738 -6.742640687119286,6.035533905932738 -6.035533905932738,6.742640687119286" stroke-width="0.2%" stroke="black" fill="lightgrey" />
    <polygon points="-7.742640687119286,6.035533905932738 -8.449747468305834,6.742640687119286 -9.15685424949238,6.035533905932738 -8.449747468305834,5.32842712474619" stroke-width="0.2%" stroke="black" fill="lightgrey" />
    <polygon points="-8.449747468305834,5.32842712474619 -9.15685424949238,6.035533905932738 -10.15685424949238,6.035533905932738 -10.86396103067893,5.32842712474619 -10.86396103067893,4.32842712474619 -10.15685424949238,3.621320343559643 -9.15685424949238,3.621320343559643 -8.449747468305834,4.32842712474619" stroke-width="0.2%" stroke="black" fill="lightgrey" />
    <polygon points="-10.15685424949238,3.621320343559643 -10.86396103067893,4.32842712474619 -11.571067811865476,3.621320343559643 -10.86396103067893,2.914213562373095" stroke-width="0.2%" stroke="black" fill="lightgrey" />
    <polygon points="-10.86396103067893,2.914213562373095 -11.571067811865476,3.621320343559643 -12.571067811865476,3.621320343559643 -13.278174593052023,2.914213562373095 -13.278174593052023,1.9142135623730951 -12.571067811865476,1.2071067811865475 -11.571067811865476,1.2071067811865475 -10.86396103067893,1.9142135623730951" stroke-width="0.2%" stroke="black" fill="lightgrey" />
    <polygon points="-12.571067811865476,1.2071067811865475 -13.278174593052023,1.9142135623730951 -13.985281374238571,1.2071067811865475 -13.278174593052023,0.5" stroke-width="0.2%" stroke="black" fill="lightgrey" />
    <polygon points="0.5,15.69238815542512 1.2071067811865475,16.399494936611667 1.2071067811865475,17.399494936611667 0.5,18.106601717798213 -0.5,18.106601717798213 -1.2071067811865475,17.399494936611667 -1.2071067811865475,16.399494936611667 -0.5,15.69238815542512" stroke-width="0.2%" stroke="black" fill="lightgrey" />
    <polygon points="-0.5,15.69238815542512 -1.2071067811865475,16.399494936611667 -1.9142135623730951,15.69238815542512 -1.2071067811865475,14.985281374238571" stroke-width="0.2%" stroke="black" fill="lightgrey" />
    <polygon points="-1.2071067811865475,14.985281374238571 -1.9142135623730951,15.69238815542512 -2.914213562373095,15.69238815542512 -3.621320343559643,14.985281374238571 -3.621320343559643,13.985281374238571 -2.914213562373095,13.278174593052023 -1.9142135623730951,13.278174593052023 -1.2071067811865475,13.985281374238571" stroke-width="0.2%" stroke="black" fill="lightgrey" />
    <polygon points="-2.914213562373095,13.278174593052023 -3.621320343559643,13.985281374238571 -4.32842712474619,13.278174593052023 -3.621320343559643,12.571067811865476" stroke-width="0.2%" stroke="black" fill="lightgrey" />
    <polygon points="-3.621320343559643,12.571067811865476 -4.32842712474619,13.278174593052023 -5.32842712474619,13.278174593052023 -6.035533905932738,12.571067811865476 -6.035533905932738,11.571067811865476 -5.32842712474619,10.86396103067893 -4.32842712474619,10.86396103067893 -3.621320343559643,11.571067811865476" stroke-width="0.2%" stroke="black" fill="lightgrey" />
    <polygon points="-5.32842712474619,10.86396103067893 -6.035533905932738,11.571067811865476 -6.742640687119286,10.86396103067893 -6.035533905932738,10.15685424949238" stroke-width="0.2%" stroke="black" fill="lightgrey" />
    <polygon points="-6.035533905932738,10.15685424949238 -6.742640687119286,10.86396103067893 -7.742640687119286,10.86396103067893 -8.449747468305834,10.15685424949238 -8.449747468305834,9.15685424949238 -7.742640687119286,8.449747468305834 -6.742640687119286,8.449747468305834 -6.035533905932738,9.15685424949238" stroke-width="0.2%" stroke="black" fill="lightgrey" />
    <polygon points="-7.742640687119286,8.449747468305834 -8.449747468305834,9.15685424949238 -9.15685424949238,8.449747468305834 -8.449747468305834,7.742640687119286" stroke-width="0.2%" stroke="black" fill="lightgrey" />
    <polygon points="-8.449747468305834,7.742640687119286 -9.15685424949238,8.449747468305834 -10.15685424949238,8.449747468305834 -10.86396103067893,7.742640687119286 -10.86396103067893,6.742640687119286 -10.15685424949238,6.035533905932738 -9.15685424949238,6.035533905932738 -8.449747468305834,6.742640687119286" stroke-width="0.2%" stroke="black" fill="lightgrey" />
    <polygon points="-10.15685424949238,6.035533905932738 -10.86396103067893,6.742640687119286 -11.571067811865476,6.035533905932738 -10.86396103067893,5.32842712474619" stroke-width="0.2%" stroke="black" fill="lightgrey" />
    <polygon points="-10.86396103067893,5.32842712474619 -11.571067811865476,6.035533905932738 -12.571067811865476,6.035533905932738 -13.278174593052023,5.32842712474619 -13.278174593052023,4.32842712474619 -12.571067811865476,3.621320343559643 -11.571067811865476,3.621320343559643 -10.86396103067893,4.32842712474619" stroke-width="0.2%" stroke="black" fill="lightgrey" />
    <polygon points="-12.571067811865476,3.621320343559643 -13.278174593052023,4.32842712474619 -13.985281374238571,3.621320343559643 -13.278174593052023,2.914213562373095" stroke-width="0.2%" stroke="black" fill="lightgrey" />
    <polygon points="-13.278174593052023,2.914213562373095 -13.985281374238571,3.621320343559643 -14.985281374238571,3.621320343559643 -15.69238815542512,2.914213562373095 -15.69238815542512,1.9142135623730951 -14.985281374238571,1.2071067811865475 -13.985281374238571,1.2071067811865475 -13.278174593052023,1.9142135623730951" stroke-width="0.2%" stroke="black" fill="lightgrey" />
    <polygon points="-14.985281374238571,1.2071067811865475 -15.69238815542512,1.9142135623730951 -16.399494936611667,1.2071067811865475 -15.69238815542512,0.5" stroke-width="0.2%" stroke="black" fill="lightgrey" />
    <polygon points="0.5,18.106601717798213 1.2071067811865475,18.81370849898476 1.2071067811865475,19.81370849898476 0.5,20.52081528017131 -0.5,20.52081528017131 -1.2071067811865475,19.81370849898476 -1.2071067811865475,18.81370849898476 -0.5,18.106601717798213" stroke-width="0.2%" stroke="black" fill="lightgrey" />
    <polygon points="-0.5,18.106601717798213 -1.2071067811865475,18.81370849898476 -1.9142135623730951,18.106601717798213 -1.2071067811865475,17.399494936611667" stroke-width="0.2%" stroke="black" fill="lightgrey" />
    <polygon points="-1.2071067811865475,17.399494936611667 -1.9142135623730951,18.106601717798213 -2.914213562373095,18.106601717798213 -3.621320343559643,17.399494936611667 -3.621320343559643,16.399494936611667 -2.914213562373095,15.69238815542512 -1.9142135623730951,15.69238815542512 -1.2071067811865475,16.399494936611667" stroke-width="0.2%" stroke="black" fill="lightgrey" />
    <polygon points="-2.914213562373095,15.69238815542512 -3.621320343559643,16.399494936611667 -4.32842712474619,15.69238815542512 -3.621320343559643,14.985281374238571" stroke-width="0.2%" stroke="black" fill="lightgrey" />
    <polygon points="-3.621320343559643,14.985281374238571 -4.32842712474619,15.69238815542512 -5.32842712474619,15.69238815542512 -6.035533905932738,14.985281374238571 -6.035533905932738,13.985281374238571 -5.32842712474619,13.278174593052023 -4.32842712474619,13.278174593052023 -3.621320343559643,13.985281374238571" stroke-width="0.2%" stroke="black" fill="lightgrey" />
    <polygon points="-5.32842712474619,13.278174593052023 -6.035533905932738,13.985281374238571 -6.742640687119286,13.278174593052023 -6.035533905932738,12.571067811865476" stroke-width="0.2%" stroke="black" fill="lightgrey" />
    <polygon points="-6.035533905932738,12.571067811865476 -6.742640687119286,13.278174593052023 -7.742640687119286,13.278174593052023 -8.449747468305834,12.571067811865476 -8.449747468305834,11.571067811865476 -7.742640687119286,10.86396103067893 -6.742640687119286,10.86396103067893 -6.035533905932738,11.571067811865476" stroke-width="0.2%" stroke="black" fill="lightgrey" />
    <polygon points="-7.742640687119286,10.86396103067893 -8.449747468305834,11.571067811865476 -9.15685424949238,10.86396103067893 -8.449747468305834,10.15685424949238" stroke-width="0.2%" stroke="black" fill="lightgrey" />
    <polygon points="-8.449747468305834,10.15685424949238 -9.15685424949238,10.86396103067893 -10.15685424949238,10.86396103067893 -10.86396103067893,10.15685424949238 -10.86396103067893,9.15685424949238 -10.15685424949238,8.449747468305834 -9.15685424949238,8.449747468305834 -8.449747468305834,9.15685424949238" stroke-width="0.2%" stroke="black" fill="lightgrey" />
    <polygon points="-10.15685424949238,8.449747468305834 -10.86396103067893,9.15685424949238 -11.571067811865476,8.449747468305834 -10.86396103067893,7.742640687119286" stroke-width="0.2%" stroke="black" fill="lightgrey" />
    <polygon points="-10.86396103067893,7.742640687119286 -11.571067811865476,8.449747468305834 -12.571067811865476,8.449747468305834 -13.278174593052023,7.742640687119286 -13.278174593052023,6.742640687119286 -12.571067811865476,6.035533905932738 -11.571067811865476,6.035533905932738 -10.86396103067893,6.742640687119286" stroke-width="0.2%" stroke="black" fill="lightgrey" />
    <polygon points="-12.571067811865476,6.035533905932738 -13.278174593052023,6.742640687119286 -13.985281374238571,6.035533905932738 -13.278174593052023,5.32842712474619" stroke-width="0.2%" stroke="black" fill="lightgrey" />
    <polygon points="-13.278174593052023,5.32842712474619 -13.985281374238571,6.035533905932738 -14.985281374238571,6.035533905932738 -15.69238815542512,5.32842712474619 -15.69238815542512,4.32842712474619 -14.985281374238571,3.621320343559643 -13.985281374238571,3.621320343559643 -13.278174593052023,4.32842712474619" stroke-width="0.2%" stroke="black" fill="lightgrey" />
    <polygon points="-14.985281374238571,3.621320343559643 -15.69238815542512,4.32842712474619 -16.399494936611667,3.621320343559643 -15.69238815542512,2.914213562373095" stroke-width="0.2%" stroke="black" fill="lightgrey" />
    <polygon points="-15.69238815542512,2.914213562373095 -16.399494936611667,3.621320343559643 -17.399494936611667,3.621320343559643 -18.106601717798213,2.914213562373095 -18.106601717798213,1.9142135623730951 -17.399494936611667,1.2071067811865475 -16.399494936611667,1.2071067811865475 -15.69238815542512,1.9142135623730951" stroke-width="0.2%" stroke="black" fill="lightgrey" />
    <polygon points="-17.399494936611667,1.2071067811865475 -18.106601717798213,1.9142135623730951 -18.81370849898476,1.2071067811865475 -18.106601717798213,0.5" stroke-width="0.2%" stroke="black" fill="lightgrey" />
    <polygon points="-1.2071067811865475,0.5 -1.9142135623730951,1.2071067811865475 -2.914213562373095,1.2071067811865475 -3.621320343559643,0.5 -3.621320343559643,-0.5 -2.914213562373095,-1.2071067811865475 -1.9142135623730951,-1.2071067811865475 -1.2071067811865475,-0.5" stroke-width="0.2%" stroke="black" fill="lightgrey" />
    <polygon points="-1.2071067811865475,-0.5 -1.9142135623730951,-1.2071067811865475 -1.2071067811865475,-1.9142135623730951 -0.5,-1.2071067811865475" stroke-width="0.2%" stroke="black" fill="lightgrey" />
    <polygon points="-3.621320343559643,0.5 -4.32842712474619,1.2071067811865475 -5.32842712474619,1.2071067811865475 -6.035533905932738,0.5 -6.035533905932738,-0.5 -5.32842712474619,-1.2071067811865475 -4.32842712474619,-1.2071067811865475 -3.621320343559643,-0.5" stroke-width="0.2%" stroke="black" fill="lightgrey" />
    <polygon points="-3.621320343559643,-0.5 -4.32842712474619,-1.2071067811865475 -3.621320343559643,-1.9142135623730951 -2.914213562373095,-1.2071067811865475" stroke-width="0.2%" stroke="black" fill="lightgrey" />
    <polygon points="-2.914213562373095,-1.2071067811865475 -3.621320343559643,-1.9142135623730951 -3.621320343559643,-2.914213562373095 -2.914213562373095,-3.621320343559643 -1.9142135623730951,-3.621320343559643 -1.2071067811865475,-2.914213562373095 -1.2071067811865475,-1.9142135623730951 -1.9142135623730951,-1.2071067811865475" stroke-width="0.2%" stroke="black" fill="lightgrey" />
    <polygon points="-1.2071067811865475,-2.914213562373095 -1.9142135623730951,-3.621320343559643 -1.2071067811865475,-4.32842712474619 -0.5,-3.621320343559643" stroke-width="0.2%" stroke="black" fill="lightgrey" />
    <polygon points="-6.035533905932738,0.5 -6.742640687119286,1.2071067811865475 -7.742640687119286,1.2071067811865475 -8.449747468305834,0.5 -8.449747468305834,-0.5 -7.742640687119286,-1.2071067811865475 -6.742640687119286,-1.2071067811865475 -6.035533905932738,-0.5" stroke-width="0.2%" stroke="black" fill="lightgrey" />
    <polygon points="-6.035533905932738,-0.5 -6.742640687119286,-1.2071067811865475 -6.035533905932738,-1.9142135623730951 -5.32842712474619,-1.2071067811865475" stroke-width="0.2%" stroke="black" fill="lightgrey" />
    <polygon points="-5.32842712474619,-1.2071067811865475 -6.035533905932738,-1.9142135623730951 -6.035533905932738,-2.914213562373095 -5.32842712474619,-3.621320343559643 -4.32842712474619,-3.621320343559643 -3.621320343559643,-2.914213562373095 -3.621320343559643,-1.9142135623730951 -4.32842712474619,-1.2071067811865475" stroke-width="0.2%" stroke="black" fill="lightgrey" />
    <polygon points="-3.621320343559643,-2.914213562373095 -4.32842712474619,-3.621320343559643 -3.621320343559643,-4.32842712474619 -2.914213562373095,-3.621320343559643" stroke-width="0.2%" stroke="black" fill="lightgrey" />
    <polygon points="-2.914213562373095,-3.621320343559643 -3.621320343559643,-4.32842712474619 -3.621320343559643,-5.32842712474619 -2.914213562373095,-6.035533905932738 -1.9142135623730951,-6.035533905932738 -1.2071067811865475,-5.32842712474619 -1.2071067811865475,-4.32842712474619 -1.9142135623730951,-3.621320343559643" stroke-width="0.2%" stroke="black" fill="lightgrey" />
    <polygon points="-1.2071067811865475,-5.32842712474619 -1.9142135623730951,-6.035533905932738 -1.2071067811865475,-6.742640687119286 -0.5,-6.035533905932738" stroke-width="0.2%" stroke="black" fill="lightgrey" />
    <polygon points="-8.449747468305834,0.5 -9.15685424949238,1.2071067811865475 -10.15685424949238,1.2071067811865475 -10.86396103067893,0.5 -10.86396103067893,-0.5 -10.15685424949238,-1.2071067811865475 -9.15685424949238,-1.2071067811865475 -8.449747468305834,-0.5" stroke-width="0.2%" stroke="black" fill="lightgrey" />
    <polygon points="-8.449747468305834,-0.5 -9.15685424949238,-1.2071067811865475 -8.449747468305834,-1.9142135623730951 -7.742640687119286,-1.2071067811865475" stroke-width="0.2%" stroke="black" fill="lightgrey" />
    <polygon points="-7.742640687119286,-1.2071067811865475 -8.449747468305834,-1.9142135623730951 -8.449747468305834,-2.914213562373095 -7.742640687119286,-3.621320343559643 -6.742640687119286,-3.621320343559643 -6.035533905932738,-2.914213562373095 -6.035533905932738,-1.9142135623730951 -6.742640687119286,-1.2071067811865475" stroke-width="0.2%" stroke="black" fill="lightgrey" />
    <polygon points="-6.035533905932738,-2.914213562373095 -6.742640687119286,-3.621320343559643 -6.035533905932738,-4.32842712474619 -5.32842712474619,-3.621320343559643" stroke-width="0.2%" stroke="black" fill="lightgrey" />
    <polygon points="-5.32842712474619,-3.621320343559643 -6.035533905932738,-4.32842712474619 -6.035533905932738,-5.32842712474619 -5.32842712474619,-6.035533905932738 -4.32842712474619,-6.035533905932738 -3.621320343559643,-5.32842712474619 -3.621320343559643,-4.32842712474619 -4.32842712474619,-3.621320343559643" stroke-width="0.2%" stroke="black" fill="lightgrey" />
    <polygon points="-3.621320343559643,-5.32842712474619 -4.32842712474619,-6.035533905932738 -3.621320343559643,-6.742640687119286 -2.914213562373095,-6.035533905932738" stroke-width="0.2%" stroke="black" fill="lightgrey" />
    <polygon points="-2.914213562373095,-6.035533905932738 -3.621320343559643,-6.742640687119286 -3.621320343559643,-7.742640687119286 -2.914213562373095,-8.449747468305834 -1.9142135623730951,-8.449747468305834 -1.2071067811865475,-7.742640687119286 -1.2071067811865475,-6.742640687119286 -1.9142135623730951,-6.035533905932738" stroke-width="0.2%" stroke="black" fill="lightgrey" />
    <polygon points="-1.2071067811865475,-7.742640687119286 -1.9142135623730951,-8.449747468305834 -1.2071067811865475,-9.15685424949238 -0.5,-8.449747468305834" stroke-width="0.2%" stroke="black" fill="lightgrey" />
    <polygon points="-10.86396103067893,0.5 -11.571067811865476,1.2071067811865475 -12.571067811865476,1.2071067811865475 -13.278174593052023,0.5 -13.278174593052023,-0.5 -12.571067811865476,-1.2071067811865475 -11.571067811865476,-1.2071067811865475 -10.86396103067893,-0.5" stroke-width="0.2%" stroke="black" fill="lightgrey" />
    <polygon points="-10.86396103067893,-0.5 -11.571067811865476,-1.2071067811865475 -10.86396103067893,-1.9142135623730951 -10.15685424949238,-1.2071067811865475" stroke-width="0.2%" stroke="black" fill="lightgrey" />
    <polygon points="-10.15685424949238,-1.2071067811865475 -10.86396103067893,-1.9142135623730951 -10.86396103067893,-2.914213562373095 -10.15685424949238,-3.621320343559643 -9.15685424949238,-3.621320343559643 -8.449747468305834,-2.914213562373095 -8.449747468305834,-1.9142135623730951 -9.15685424949238,-1.2071067811865475" stroke-width="0.2%" stroke="black" fill="lightgrey" />
    <polygon points="-8.449747468305834,-2.914213562373095 -9.15685424949238,-3.621320343559643 -8.449747468305834,-4.32842712474619 -7.742640687119286,-3.621320343559643" stroke-width="0.2%" stroke="black" fill="lightgrey" />
    <polygon points="-7.742640687119286,-3.621320343559643 -8.449747468305834,-4.32842712474619 -8.449747468305834,-5.32842712474619 -7.742640687119286,-6.035533905932738 -6.742640687119286,-6.035533905932738 -6.035533905932738,-5.32842712474619 -6.035533905932738,-4.32842712474619 -6.742640687119286,-3.621320343559643" stroke-width="0.2%" stroke="black" fill="lightgrey" />
    <polygon points="-6.035533905932738,-5.32842712474619 -6.742640687119286,-6.035533905932738 -6.035533905932738,-6.742640687119286 -5.32842712474619,-6.035533905932738" stroke-width="0.2%" stroke="black" fill="lightgrey" />
    <polygon points="-5.32842712474619,-6.035533905932738 -6.035533905932738,-6.742640687119286 -6.035533905932738,-7.742640687119286 -5.32842712474619,-8.449747468305834 -4.32842712474619,-8.449747468305834 -3.621320343559643,-7.742640687119286 -3.621320343559643,-6.742640687119286 -4.32842712474619,-6.035533905932738" stroke-width="0.2%" stroke="black" fill="lightgrey" />
    <polygon points="-3.621320343559643,-7.742640687119286 -4.32842712474619,-8.449747468305834 -3.621320343559643,-9.15685424949238 -2.914213562373095,-8.449747468305834" stroke-width="0.2%" stroke="black" fill="lightgrey" />
    <polygon points="-2.914213562373095,-8.449747468305834 -3.621320343559643,-9.15685424949238 -3.621320343559643,-10.15685424949238 -2.914213562373095,-10.86396103067893 -1.9142135623730951,-10.86396103067893 -1.2071067811865475,-10.15685424949238 -1.2071067811865475,-9.15685424949238 -1.9142135623730951,-8.449747468305834" stroke-width="0.2%" stroke="black" fill="lightgrey" />
    <polygon points="-1.2071067811865475,-10.15685424949238 -1.9142135623730951,-10.86396103067893 -1.2071067811865475,-11.571067811865476 -0.5,-10.86396103067893" stroke-width="0.2%" stroke="black" fill="lightgrey" />
    <polygon points="-13.278174593052023,0.5 -13.985281374238571,1.2071067811865475 -14.985281374238571,1.2071067811865475 -15.69238815542512,0.5 -15.69238815542512,-0.5 -14.985281374238571,-1.2071067811865475 -13.985281374238571,-1.2071067811865475 -13.278174593052023,-0.5" stroke-width="0.2%" stroke="black" fill="lightgrey" />
    <polygon points="-13.278174593052023,-0.5 -13.985281374238571,-1.2071067811865475 -13.278174593052023,-1.9142135623730951 -12.571067811865476,-1.2071067811865475" stroke-width="0.2%" stroke="black" fill="lightgrey" />
    <polygon points="-12.571067811865476,-1.2071067811865475 -13.278174593052023,-1.9142135623730951 -13.278174593052023,-2.914213562373095 -12.571067811865476,-3.621320343559643 -11.571067811865476,-3.621320343559643 -10.86396103067893,-2.914213562373095 -10.86396103067893,-1.9142135623730951 -11.571067811865476,-1.2071067811865475" stroke-width="0.2%" stroke="black" fill="lightgrey" />
    <polygon points="-10.86396103067893,-2.914213562373095 -11.571067811865476,-3.621320343559643 -10.86396103067893,-4.32842712474619 -10.15685424949238,-3.621320343559643" stroke-width="0.2%" stroke="black" fill="lightgrey" />
    <polygon points="-10.15685424949238,-3.621320343559643 -10.86396103067893,-4.32842712474619 -10.86396103067893,-5.32842712474619 -10.15685424949238,-6.035533905932738 -9.15685424949238,-6.035533905932738 -8.449747468305834,-5.32842712474619 -8.449747468305834,-4.32842712474619 -9.15685424949238,-3.621320343559643" stroke-width="0.2%" stroke="black" fill="lightgrey" />
    <polygon points="-8.449747468305834,-5.32842712474619 -9.15685424949238,-6.035533905932738 -8.449747468305834,-6.742640687119286 -7.742640687119286,-6.035533905932738" stroke-width="0.2%" stroke="black" fill="lightgrey" />
    <polygon points="-7.742640687119286,-6.035533905932738 -8.449747468305834,-6.742640687119286 -8.449747468305834,-7.742640687119286 -7.742640687119286,-8.449747468305834 -6.742640687119286,-8.449747468305834 -6.035533905932738,-7.742640687119286 -6.035533905932738,-6.742640687119286 -6.742640687119286,-6.035533905932738" stroke-width="0.2%" stroke="black" fill="lightgrey" />
    <polygon points="-6.035533905932738,-7.742640687119286 -6.742640687119286,-8.449747468305834 -6.035533905932738,-9.15685424949238 -5.32842712474619,-8.449747468305834" stroke-width="0.2%" stroke="black" fill="lightgrey" />
    <polygon points="-5.32842712474619,-8.449747468305834 -6.035533905932738,-9.15685424949238 -6.035533905932738,-10.15685424949238 -5.32842712474619,-10.86396103067893 -4.32842712474619,-10.86396103067893 -3.621320343559643,-10.15685424949238 -3.621320343559643,-9.15685424949238 -4.32842712474619,-8.449747468305834" stroke-width="0.2%" stroke="black" fill="lightgrey" />
    <polygon points="-3.621320343559643,-10.15685424949238 -4.32842712474619,-10.86396103067893 -3.621320343559643,-11.571067811865476 -2.914213562373095,-10.86396103067893" stroke-width="0.2%" stroke="black" fill="lightgrey" />
    <polygon points="-2.914213562373095,-10.86396103067893 -3.621320343559643,-11.571067811865476 -3.621320343559643,-12.571067811865476 -2.914213562373095,-13.278174593052023 -1.9142135623730951,-13.278174593052023 -1.2071067811865475,-12.571067811865476 -1.2071067811865475,-11.571067811865476 -1.9142135623730951,-10.86396103067893" stroke-width="0.2%" stroke="black" fill="lightgrey" />
    <polygon points="-1.2071067811865475,-12.571067811865476 -1.9142135623730951,-13.278174593052023 -1.2071067811865475,-13.985281374238571 -0.5,-13.278174593052023" stroke-width="0.2%" stroke="black" fill="lightgrey" />
    <polygon points="-15.69238815542512,0.5 -16.399494936611667,1.2071067811865475 -17.399494936611667,1.2071067811865475 -18.106601717798213,0.5 -18.106601717798213,-0.5 -17.399494936611667,-1.2071067811865475 -16.399494936611667,-1.2071067811865475 -15.69238815542512,-0.5" stroke-width="0.2%" stroke="black" fill="lightgrey" />
    <polygon points="-15.69238815542512,-0.5 -16.399494936611667,-1.2071067811865475 -15.69238815542512,-1.9142135623730951 -14.985281374238571,-1.2071067811865475" stroke-width="0.2%" stroke="black" fill="lightgrey" />
    <polygon points="-14.985281374238571,-1.2071067811865475 -15.69238815542512,-1.9142135623730951 -15.69238815542512,-2.914213562373095 -14.985281374238571,-3.621320343559643 -13.985281374238571,-3.621320343559643 -13.278174593052023,-2.914213562373095 -13.278174593052023,-1.9142135623730951 -13.985281374238571,-1.2071067811865475" stroke-width="0.2%" stroke="black" fill="lightgrey" />
    <polygon points="-13.278174593052023,-2.914213562373095 -13.985281374238571,-3.621320343559643 -13.278174593052023,-4.32842712474619 -12.571067811865476,-3.621320343559643" stroke-width="0.2%" stroke="black" fill="lightgrey" />
    <polygon points="-12.571067811865476,-3.621320343559643 -13.278174593052023,-4.32842712474619 -13.278174593052023,-5.32842712474619 -12.571067811865476,-6.035533905932738 -11.571067811865476,-6.035533905932738 -10.86396103067893,-5.32842712474619 -10.86396103067893,-4.32842712474619 -11.571067811865476,-3.621320343559643" stroke-width="0.2%" stroke="black" fill="lightgrey" />
    <polygon points="-10.86396103067893,-5.32842712474619 -11.571067811865476,-6.035533905932738 -10.86396103067893,-6.742640687119286 -10.15685424949238,-6.035533905932738" stroke-width="0.2%" stroke="black" fill="lightgrey" />
    <polygon points="-10.15685424949238,-6.035533905932738 -10.86396103067893,-6.742640687119286 -10.86396103067893,-7.742640687119286 -10.15685424949238,-8.449747468305834 -9.15685424949238,-8.449747468305834 -8.449747468305834,-7.742640687119286 -8.449747468305834,-6.742640687119286 -9.15685424949238,-6.035533905932738" stroke-width="0.2%" stroke="black" fill="lightgrey" />
    <polygon points="-8.449747468305834,-7.742640687119286 -9.15685424949238,-8.449747468305834 -8.449747468305834,-9.15685424949238 -7.742640687119286,-8.449747468305834" stroke-width="0.2%" stroke="black" fill="lightgrey" />
    <polygon points="-7.742640687119286,-8.449747468305834 -8.449747468305834,-9.15685424949238 -8.449747468305834,-10.15685424949238 -7.742640687119286,-10.86396103067893 -6.742640687119286,-10.86396103067893 -6.035533905932738,-10.15685424949238 -6.035533905932738,-9.15685424949238 -6.742640687119286,-8.449747468305834" stroke-width="0.2%" stroke="black" fill="lightgrey" />
    <polygon points="-6.035533905932738,-10.15685424949238 -6.742640687119286,-10.86396103067893 -6.035533905932738,-11.571067811865476 -5.32842712474619,-10.86396103067893" stroke-width="0.2%" stroke="black" fill="lightgrey" />
    <polygon points="-5.32842712474619,-10.86396103067893 -6.035533905932738,-11.571067811865476 -6.035533905932738,-12.571067811865476 -5.32842712474619,-13.278174593052023 -4.32842712474619,-13.278174593052023 -3.621320343559643,-12.571067811865476 -3.621320343559643,-11.571067811865476 -4.32842712474619,-10.86396103067893" stroke-width="0.2%" stroke="black" fill="lightgrey" />
    <polygon points="-3.621320343559643,-12.571067811865476 -4.32842712474619,-13.278174593052023 -3.621320343559643,-13.985281374238571 -2.914213562373095,-13.278174593052023" stroke-width="0.2%" stroke="black" fill="lightgrey" />
    <polygon points="-2.914213562373095,-13.278174593052023 -3.621320343559643,-13.985281374238571 -3.621320343559643,-14.985281374238571 -2.914213562373095,-15.69238815542512 -1.9142135623730951,-15.69238815542512 -1.2071067811865475,-14.985281374238571 -1.2071067811865475,-13.985281374238571 -1.9142135623730951,-13.278174593052023" stroke-width="0.2%" stroke="black" fill="lightgrey" />
    <polygon points="-1.2071067811865475,-14.985281374238571 -1.9142135623730951,-15.69238815542512 -1.2071067811865475,-16.399494936611667 -0.5,-15.69238815542512" stroke-width="0.2%" stroke="black" fill="lightgrey" />
    <polygon points="-18.106601717798213,0.5 -18.81370849898476,1.2071067811865475 -19.81370849898476,1.2071067811865475 -20.52081528017131,0.5 -20.52081528017131,-0.5 -19.81370849898476,-1.2071067811865475 -18.81370849898476,-1.2071067811865475 -18.106601717798213,-0.5" stroke-width="0.2%" stroke="black" fill="lightgrey" />
    <polygon points="-18.106601717798213,-0.5 -18.81370849898476,-1.2071067811865475 -18.106601717798213,-1.9142135623730951 -17.399494936611667,-1.2071067811865475" stroke-width="0.2%" stroke="black" fill="lightgrey" />
    <polygon points="-17.399494936611667,-1.2071067811865475 -18.106601717798213,-1.9142135623730951 -18.106601717798213,-2.914213562373095 -17.399494936611667,-3.621320343559643 -16.399494936611667,-3.621320343559643 -15.69238815542512,-2.914213562373095 -15.69238815542512,-1.9142135623730951 -16.399494936611667,-1.2071067811865475" stroke-width="0.2%" stroke="black" fill="lightgrey" />
    <polygon points="-15.69238815542512,-2.914213562373095 -16.399494936611667,-3.621320343559643 -15.69238815542512,-4.32842712474619 -14.985281374238571,-3.621320343559643" stroke-width="0.2%" stroke="black" fill="lightgrey" />
    <polygon points="-14.985281374238571,-3.621320343559643 -15.69238815542512,-4.32842712474619 -15.69238815542512,-5.32842712474619 -14.985281374238571,-6.035533905932738 -13.985281374238571,-6.035533905932738 -13.278174593052023,-5.32842712474619 -13.278174593052023,-4.32842712474619 -13.985281374238571,-3.621320343559643" stroke-width="0.2%" stroke="black" fill="lightgrey" />
    <polygon points="-13.278174593052023,-5.32842712474619 -13.985281374238571,-6.035533905932738 -13.278174593052023,-6.742640687119286 -12.571067811865476,-6.035533905932738" stroke-width="0.2%" stroke="black" fill="lightgrey" />
    <polygon points="-12.571067811865476,-6.035533905932738 -13.278174593052023,-6.742640687119286 -13.278174593052023,-7.742640687119286 -12.571067811865476,-8.449747468305834 -11.571067811865476,-8.449747468305834 -10.86396103067893,-7.742640687119286 -10.86396103067893,-6.742640687119286 -11.571067811865476,-6.035533905932738" stroke-width="0.2%" stroke="black" fill="lightgrey" />
    <polygon points="-10.86396103067893,-7.742640687119286 -11.571067811865476,-8.449747468305834 -10.86396103067893,-9.15685424949238 -10.15685424949238,-8.449747468305834" stroke-width="0.2%" stroke="black" fill="lightgrey" />
    <polygon points="-10.15685424949238,-8.449747468305834 -10.86396103067893,-9.15685424949238 -10.86396103067893,-10.15685424949238 -10.15685424949238,-10.86396103067893 -9.15685424949238,-10.86396103067893 -8.449747468305834,-10.15685424949238 -8.449747468305834,-9.15685424949238 -9.15685424949238,-8.449747468305834" stroke-width="0.2%" stroke="black" fill="lightgrey" />
    <polygon points="-8.449747468305834,-10.15685424949238 -9.15685424949238,-10.86396103067893 -8.449747468305834,-11.571067811865476 -7.742640687119286,-10.86396103067893" stroke-width="0.2%" stroke="black" fill="lightgrey" />
    <polygon points="-7.742640687119286,-10.86396103067893 -8.449747468305834,-11.571067811865476 -8.449747468305834,-12.571067811865476 -7.742640687119286,-13.278174593052023 -6.742640687119286,-13.278174593052023 -6.035533905932738,-12.571067811865476 -6.035533905932738,-11.571067811865476 -6.742640687119286,-10.86396103067893" stroke-width="0.2%" stroke="black" fill="lightgrey" />
    <polygon points="-6.035533905932738,-12.571067811865476 -6.742640687119286,-13.278174593052023 -6.035533905932738,-13.985281374238571 -5.32842712474619,-13.278174593052023" stroke-width="0.2%" stroke="black" fill="lightgrey" />
    <polygon points="-5.32842712474619,-13.278174593052023 -6.035533905932738,-13.985281374238571 -6.035533905932738,-14.985281374238571 -5.32842712474619,-15.69238815542512 -4.32842712474619,-15.69238815542512 -3.621320343559643,-14.985281374238571 -3.621320343559643,-13.985281374238571 -4.32842712474619,-13.278174593052023" stroke-width="0.2%" stroke="black" fill="lightgrey" />
    <polygon points="-3.621320343559643,-14.985281374238571 -4.32842712474619,-15.69238815542512 -3.621320343559643,-16.399494936611667 -2.914213562373095,-15.69238815542512" stroke-width="0.2%" stroke="black" fill="lightgrey" />
    <polygon points="-2.914213562373095,-15.69238815542512 -3.621320343559643,-16.399494936611667 -3.621320343559643,-17.399494936611667 -2.914213562373095,-18.106601717798213 -1.9142135623730951,-18.106601717798213 -1.2071067811865475,-17.399494936611667 -1.2071067811865475,-16.399494936611667 -1.9142135623730951,-15.69238815542512" stroke-width="0.2%" stroke="black" fill="lightgrey" />
    <polygon points="-1.2071067811865475,-17.399494936611667 -1.9142135623730951,-18.106601717798213 -1.2071067811865475,-18.81370849898476 -0.5,-18.106601717798213" stroke-width="0.2%" stroke="black" fill="lightgrey" />
    <polygon points="-0.5,-1.2071067811865475 -1.2071067811865475,-1.9142135623730951 -1.2071067811865475,-2.914213562373095 -0.5,-3.621320343559643 0.5,-3.621320343559643 1.2071067811865475,-2.914213562373095 1.2071067811865475,-1.9142135623730951 0.5,-1.2071067811865475" stroke-width="0.2%" stroke="black" fill="lightgrey" />
    <polygon points="0.5,-1.2071067811865475 1.2071067811865475,-1.9142135623730951 1.9142135623730951,-1.2071067811865475 1.2071067811865475,-0.5" stroke-width="0.2%" stroke="black" fill="lightgrey" />
    <polygon points="-0.5,-3.621320343559643 -1.2071067811865475,-4.32842712474619 -1.2071067811865475,-5.32842712474619 -0.5,-6.035533905932738 0.5,-6.035533905932738 1.2071067811865475,-5.32842712474619 1.2071067811865475,-4.32842712474619 0.5,-3.621320343559643" stroke-width="0.2%" stroke="black" fill="lightgrey" />
    <polygon points="0.5,-3.621320343559643 1.2071067811865475,-4.32842712474619 1.9142135623730951,-3.621320343559643 1.2071067811865475,-2.914213562373095" stroke-width="0.2%" stroke="black" fill="lightgrey" />
    <polygon points="1.2071067811865475,-2.914213562373095 1.9142135623730951,-3.621320343559643 2.914213562373095,-3.621320343559643 3.621320343559643,-2.914213562373095 3.621320343559643,-1.9142135623730951 2.914213562373095,-1.2071067811865475 1.9142135623730951,-1.2071067811865475 1.2071067811865475,-1.9142135623730951" stroke-width="0.2%" stroke="black" fill="lightgrey" />
    <polygon points="2.914213562373095,-1.2071067811865475 3.621320343559643,-1.9142135623730951 4.32842712474619,-1.2071067811865475 3.621320343559643,-0.5" stroke-width="0.2%" stroke="black" fill="lightgrey" />
    <polygon points="-0.5,-6.035533905932738 -1.2071067811865475,-6.742640687119286 -1.2071067811865475,-7.742640687119286 -0.5,-8.449747468305834 0.5,-8.449747468305834 1.2071067811865475,-7.742640687119286 1.2071067811865475,-6.742640687119286 0.5,-6.035533905932738" stroke-width="0.2%" stroke="black" fill="lightgrey" />
    <polygon points="0.5,-6.035533905932738 1.2071067811865475,-6.742640687119286 1.9142135623730951,-6.035533905932738 1.2071067811865475,-5.32842712474619" stroke-width="0.2%" stroke="black" fill="lightgrey" />
    <polygon points="1.2071067811865475,-5.32842712474619 1.9142135623730951,-6.035533905932738 2.914213562373095,-6.035533905932738 3.621320343559643,-5.32842712474619 3.621320343559643,-4.32842712474619 2.914213562373095,-3.621320343559643 1.9142135623730951,-3.621320343559643 1.2071067811865475,-4.32842712474619" stroke-width="0.2%" stroke="black" fill="lightgrey" />
    <polygon points="2.914213562373095,-3.621320343559643 3.621320343559643,-4.32842712474619 4.32842712474619,-3.621320343559643 3.621320343559643,-2.914213562373095" stroke-width="0.2%" stroke="black" fill="lightgrey" />
    <polygon points="3.621320343559643,-2.914213562373095 4.32842712474619,-3.621320343559643 5.32842712474619,-3.621320343559643 6.035533905932738,-2.914213562373095 6.035533905932738,-1.9142135623730951 5.32842712474619,-1.2071067811865475 4.32842712474619,-1.2071067811865475 3.621320343559643,-1.9142135623730951" stroke-width="0.2%" stroke="black" fill="lightgrey" />
    <polygon points="5.32842712474619,-1.2071067811865475 6.035533905932738,-1.9142135623730951 6.742640687119286,-1.2071067811865475 6.035533905932738,-0.5" stroke-width="0.2%" stroke="black" fill="lightgrey" />
    <polygon points="-0.5,-8.449747468305834 -1.2071067811865475,-9.15685424949238 -1.2071067811865475,-10.15685424949238 -0.5,-10.86396103067893 0.5,-10.86396103067893 1.2071067811865475,-10.15685424949238 1.2071067811865475,-9.15685424949238 0.5,-8.449747468305834" stroke-width="0.2%" stroke="black" fill="lightgrey" />
    <polygon points="0.5,-8.449747468305834 1.2071067811865475,-9.15685424949238 1.9142135623730951,-8.449747468305834 1.2071067811865475,-7.742640687119286" stroke-width="0.2%" stroke="black" fill="lightgrey" />
    <polygon points="1.2071067811865475,-7.742640687119286 1.9142135623730951,-8.449747468305834 2.914213562373095,-8.449747468305834 3.621320343559643,-7.742640687119286 3.621320343559643,-6.742640687119286 2.914213562373095,-6.035533905932738 1.9142135623730951,-6.035533905932738 1.2071067811865475,-6.742640687119286" stroke-width="0.2%" stroke="black" fill="lightgrey" />
    <polygon points="2.914213562373095,-6.035533905932738 3.621320343559643,-6.742640687119286 4.32842712474619,-6.035533905932738 3.621320343559643,-5.32842712474619" stroke-width="0.2%" stroke="black" fill="lightgrey" />
    <polygon points="3.621320343559643,-5.32842712474619 4.32842712474619,-6.035533905932738 5.32842712474619,-6.035533905932738 6.035533905932738,-5.32842712474619 6.035533905932738,-4.32842712474619 5.32842712474619,-3.621320343559643 4.32842712474619,-3.621320343559643 3.621320343559643,-4.32842712474619" stroke-width="0.2%" stroke="black" fill="lightgrey" />
    <polygon points="5.32842712474619,-3.621320343559643 6.035533905932738,-4.32842712474619 6.742640687119286,-3.621320343559643 6.035533905932738,-2.914213562373095" stroke-width="0.2%" stroke="black" fill="lightgrey" />
    <polygon points="6.035533905932738,-2.914213562373095 6.742640687119286,-3.621320343559643 7.742640687119286,-3.621320343559643 8.449747468305834,-2.914213562373095 8.449747468305834,-1.9142135623730951 7.742640687119286,-1.2071067811865475 6.742640687119286,-1.2071067811865475 6.035533905932738,-1.9142135623730951" stroke-width="0.2%" stroke="black" fill="lightgrey" />
    <polygon points="7.742640687119286,-1.2071067811865475 8.449747468305834,-1.9142135623730951 9.15685424949238,-1.2071067811865475 8.449747468305834,-0.5" stroke-width="0.2%" stroke="black" fill="lightgrey" />
    <polygon points="-0.5,-10.86396103067893 -1.2071067811865475,-11.571067811865476 -1.2071067811865475,-12.571067811865476 -0.5,-13.278174593052023 0.5,-13.278174593052023 1.2071067811865475,-12.571067811865476 1.2071067811865475,-11.571067811865476 0.5,-10.86396103067893" stroke-width="0.2%" stroke="black" fill="lightgrey" />
    <polygon points="0.5,-10.86396103067893 1.2071067811865475,-11.571067811865476 1.9142135623730951,-10.86396103067893 1.2071067811865475,-10.15685424949238" stroke-width="0.2%" stroke="black" fill="lightgrey" />
    <polygon points="1.2071067811865475,-10.15685424949238 1.9142135623730951,-10.86396103067893 2.914213562373095,-10.86396103067893 3.621320343559643,-10.15685424949238 3.621320343559643,-9.15685424949238 2.914213562373095,-8.449747468305834 1.9142135623730951,-8.449747468305834 1.2071067811865475,-9.15685424949238" stroke-width="0.2%" stroke="black" fill="lightgrey" />
    <polygon points="2.914213562373095,-8.449747468305834 3.621320343559643,-9.15685424949238 4.32842712474619,-8.449747468305834 3.621320343559643,-7.742640687119286" stroke-width="0.2%" stroke="black" fill="lightgrey" />
    <polygon points="3.621320343559643,-7.742640687119286 4.32842712474619,-8.449747468305834 5.32842712474619,-8.449747468305834 6.035533905932738,-7.742640687119286 6.035533905932738,-6.742640687119286 5.32842712474619,-6.035533905932738 4.32842712474619,-6.035533905932738 3.621320343559643,-6.742640687119286" stroke-width="0.2%" stroke="black" fill="lightgrey" />
    <polygon points="5.32842712474619,-6.035533905932738 6.035533905932738,-6.742640687119286 6.742640687119286,-6.035533905932738 6.035533905932738,-5.32842712474619" stroke-width="0.2%" stroke="black" fill="lightgrey" />
    <polygon points="6.035533905932738,-5.32842712474619 6.742640687119286,-6.035533905932738 7.742640687119286,-6.035533905932738 8.449747468305834,-5.32842712474619 8.449747468305834,-4.32842712474619 7.742640687119286,-3.621320343559643 6.742640687119286,-3.621320343559643 6.035533905932738,-4.32842712474619" stroke-width="0.2%" stroke="black" fill="lightgrey" />
    <polygon points="7.742640687119286,-3.621320343559643 8.449747468305834,-4.32842712474619 9.15685424949238,-3.621320343559643 8.449747468305834,-2.914213562373095" stroke-width="0.2%" stroke="black" fill="lightgrey" />
    <polygon points="8.449747468305834,-2.914213562373095 9.15685424949238,-3.621320343559643 10.15685424949238,-3.621320343559643 10.86396103067893,-2.914213562373095 10.86396103067893,-1.9142135623730951 10.15685424949238,-1.2071067811865475 9.15685424949238,-1.2071067811865475 8.449747468305834,-1.9142135623730951" stroke-width="0.2%" stroke="black" fill="lightgrey" />
    <polygon points="10.15685424949238,-1.2071067811865475 10.86396103067893,-1.9142135623730951 11.571067811865476,-1.2071067811865475 10.86396103067893,-0.5" stroke-width="0.2%" stroke="black" fill="lightgrey" />
    <polygon points="-0.5,-13.278174593052023 -1.2071067811865475,-13.985281374238571 -1.2071067811865475,-14.985281374238571 -0.5,-15.69238815542512 0.5,-15.69238815542512 1.2071067811865475,-14.985281374238571 1.2071067811865475,-13.985281374238571 0.5,-13.278174593052023" stroke-width="0.2%" stroke="black" fill="lightgrey" />
    <polygon points="0.5,-13.278174593052023 1.2071067811865475,-13.985281374238571 1.9142135623730951,-13.278174593052023 1.2071067811865475,-12.571067811865476" stroke-width="0.2%" stroke="black" fill="lightgrey" />
    <polygon points="1.2071067811865475,-12.571067811865476 1.9142135623730951,-13.278174593052023 2.914213562373095,-13.278174593052023 3.621320343559643,-12.571067811865476 3.621320343559643,-11.571067811865476 2.914213562373095,-10.86396103067893 1.9142135623730951,-10.86396103067893 1.2071067811865475,-11.571067811865476" stroke-width="0.2%" stroke="black" fill="lightgrey" />
    <polygon points="2.914213562373095,-10.86396103067893 3.621320343559643,-11.571067811865476 4.32842712474619,-10.86396103067893 3.621320343559643,-10.15685424949238" stroke-width="0.2%" stroke="black" fill="lightgrey" />
    <polygon points="3.621320343559643,-10.15685424949238 4.32842712474619,-10.86396103067893 5.32842712474619,-10.86396103067893 6.035533905932738,-10.15685424949238 6.035533905932738,-9.15685424949238 5.32842712474619,-8.449747468305834 4.32842712474619,-8.449747468305834 3.621320343559643,-9.15685424949238" stroke-width="0.2%" stroke="black" fill="lightgrey" />
    <polygon points="5.32842712474619,-8.449747468305834 6.035533905932738,-9.15685424949238 6.742640687119286,-8.449747468305834 6.035533905932738,-7.742640687119286" stroke-width="0.2%" stroke="black" fill="lightgrey" />
    <polygon points="6.035533905932738,-7.742640687119286 6.742640687119286,-8.449747468305834 7.742640687119286,-8.449747468305834 8.449747468305834,-7.742640687119286 8.449747468305834,-6.742640687119286 7.742640687119286,-6.035533905932738 6.742640687119286,-6.035533905932738 6.035533905932738,-6.742640687119286" stroke-width="0.2%" stroke="black" fill="lightgrey" />
    <polygon points="7.742640687119286,-6.035533905932738 8.449747468305834,-6.742640687119286 9.15685424949238,-6.035533905932738 8.449747468305834,-5.32842712474619" stroke-width="0.2%" stroke="black" fill="lightgrey" />
    <polygon points="8.449747468305834,-5.32842712474619 9.15685424949238,-6.035533905932738 10.15685424949238,-6.035533905932738 10.86396103067893,-5.32842712474619 10.86396103067893,-4.32842712474619 10.15685424949238,-3.621320343559643 9.15685424949238,-3.621320343559643 8.449747468305834,-4.32842712474619" stroke-width="0.2%" stroke="black" fill="lightgrey" />
    <polygon points="10.15685424949238,-3.621320343559643 10.86396103067893,-4.32842712474619 11.571067811865476,-3.621320343559643 10.86396103067893,-2.914213562373095" stroke-width="0.2%" stroke="black" fill="lightgrey" />
    <polygon points="10.86396103067893,-2.914213562373095 11.571067811865476,-3.621320343559643 12.571067811865476,-3.621320343559643 13.278174593052023,-2.914213562373095 13.278174593052023,-1.9142135623730951 12.571067811865476,-1.2071067811865475 11.571067811865476,-1.2071067811865475 10.86396103067893,-1.9142135623730951" stroke-width="0.2%" stroke="black" fill="lightgrey" />
    <polygon points="12.571067811865476,-1.2071067811865475 13.278174593052023,-1.9142135623730951 13.985281374238571,-1.2071067811865475 13.278174593052023,-0.5" stroke-width="0.2%" stroke="black" fill="lightgrey" />
    <polygon points="-0.5,-15.69238815542512 -1.2071067811865475,-16.399494936611667 -1.2071067811865475,-17.399494936611667 -0.5,-18.106601717798213 0.5,-18.106601717798213 1.2071067811865475,-17.399494936611667 1.2071067811865475,-16.399494936611667 0.5,-15.69238815542512" stroke-width="0.2%" stroke="black" fill="lightgrey" />
    <polygon points="0.5,-15.69238815542512 1.2071067811865475,-16.399494936611667 1.9142135623730951,-15.69238815542512 1.2071067811865475,-14.985281374238571" stroke-width="0.2%" stroke="black" fill="lightgrey" />
    <polygon points="1.2071067811865475,-14.985281374238571 1.9142135623730951,-15.69238815542512 2.914213562373095,-15.69238815542512 3.621320343559643,-14.985281374238571 3.621320343559643,-13.985281374238571 2.914213562373095,-13.278174593052023 1.9142135623730951,-13.278174593052023 1.2071067811865475,-13.985281374238571" stroke-width="0.2%" stroke="black" fill="lightgrey" />
    <polygon points="2.914213562373095,-13.278174593052023 3.621320343559643,-13.985281374238571 4.32842712474619,-13.278174593052023 3.621320343559643,-12.571067811865476" stroke-width="0.2%" stroke="black" fill="lightgrey" />
    <polygon points="3.621320343559643,-12.571067811865476 4.32842712474619,-13.278174593052023 5.32842712474619,-13.278174593052023 6.035533905932738,-12.571067811865476 6.035533905932738,-11.571067811865476 5.32842712474619,-10.86396103067893 4.32842712474619,-10.86396103067893 3.621320343559643,-11.571067811865476" stroke-width="0.2%" stroke="black" fill="lightgrey" />
    <polygon points="5.32842712474619,-10.86396103067893 6.035533905932738,-11.571067811865476 6.742640687119286,-10.86396103067893 6.035533905932738,-10.15685424949238" stroke-width="0.2%" stroke="black" fill="lightgrey" />
    <polygon points="6.035533905932738,-10.15685424949238 6.742640687119286,-10.86396103067893 7.742640687119286,-10.86396103067893 8.449747468305834,-10.15685424949238 8.449747468305834,-9.15685424949238 7.742640687119286,-8.449747468305834 6.742640687119286,-8.449747468305834 6.035533905932738,-9.15685424949238" stroke-width="0.2%" stroke="black" fill="lightgrey" />
    <polygon points="7.742640687119286,-8.449747468305834 8.449747468305834,-9.15685424949238 9.15685424949238,-8.449747468305834 8.449747468305834,-7.742640687119286" stroke-width="0.2%" stroke="black" fill="lightgrey" />
    <polygon points="8.449747468305834,-7.742640687119286 9.15685424949238,-8.449747468305834 10.15685424949238,-8.449747468305834 10.86396103067893,-7.742640687119286 10.86396103067893,-6.742640687119286 10.15685424949238,-6.035533905932738 9.15685424949238,-6.035533905932738 8.449747468305834,-6.742640687119286" stroke-width="0.2%" stroke="black" fill="lightgrey" />
    <polygon points="10.15685424949238,-6.035533905932738 10.86396103067893,-6.742640687119286 11.571067811865476,-6.035533905932738 10.86396103067893,-5.32842712474619" stroke-width="0.2%" stroke="black" fill="lightgrey" />
    <polygon points="10.86396103067893,-5.32842712474619 11.571067811865476,-6.035533905932738 12.571067811865476,-6.035533905932738 13.278174593052023,-5.32842712474619 13.278174593052023,-4.32842712474619 12.571067811865476,-3.621320343559643 11.571067811865476,-3.621320343559643 10.86396103067893,-4.32842712474619" stroke-width="0.2%" stroke="black" fill="lightgrey" />
    <polygon points="12.571067811865476,-3.621320343559643 13.278174593052023,-4.32842712474619 13.985281374238571,-3.621320343559643 13.278174593052023,-2.914213562373095" stroke-width="0.2%" stroke="black" fill="lightgrey" />
    <polygon points="13.278174593052023,-2.914213562373095 13.985281374238571,-3.621320343559643 14.985281374238571,-3.621320343559643 15.69238815542512,-2.914213562373095 15.69238815542512,-1.9142135623730951 14.985281374238571,-1.2071067811865475 13.985281374238571,-1.2071067811865475 13.278174593052023,-1.9142135623730951" stroke-width="0.2%" stroke="black" fill="lightgrey" />
    <polygon points="14.985281374238571,-1.2071067811865475 15.69238815542512,-1.9142135623730951 16.399494936611667,-1.2071067811865475 15.69238815542512,-0.5" stroke-width="0.2%" stroke="black" fill="lightgrey" />
    <polygon points="-0.5,-18.106601717798213 -1.2071067811865475,-18.81370849898476 -1.2071067811865475,-19.81370849898476 -0.5,-20.52081528017131 0.5,-20.52081528017131 1.2071067811865475,-19.81370849898476 1.2071067811865475,-18.81370849898476 0.5,-18.106601717798213" stroke-width="0.2%" stroke="black" fill="lightgrey" />
    <polygon points="0.5,-18.106601717798213 1.2071067811865475,-18.81370849898476 1.9142135623730951,-18.106601717798213 1.2071067811865475,-17.399494936611667" stroke-width="0.2%" stroke="black" fill="lightgrey" />
    <polygon points="1.2071067811865475,-17.399494936611667 1.9142135623730951,-18.106601717798213 2.914213562373095,-18.106601717798213 3.621320343559643,-17.399494936611667 3.621320343559643,-16.399494936611667 2.914213562373095,-15.69238815542512 1.9142135623730951,-15.69238815542512 1.2071067811865475,-16.399494936611667" stroke-width="0.2%" stroke="black" fill="lightgrey" />
    <polygon points="2.914213562373095,-15.69238815542512 3.621320343559643,-16.399494936611667 4.32842712474619,-15.69238815542512 3.621320343559643,-14.985281374238571" stroke-width="0.2%" stroke="black" fill="lightgrey" />
    <polygon points="3.621320343559643,-14.985281374238571 4.32842712474619,-15.69238815542512 5.32842712474619,-15.69238815542512 6.035533905932738,-14.985281374238571 6.035533905932738,-13.985281374238571 5.32842712474619,-13.278174593052023 4.32842712474619,-13.278174593052023 3.621320343559643,-13.985281374238571" stroke-width="0.2%" stroke="black" fill="lightgrey" />
    <polygon points="5.32842712474619,-13.278174593052023 6.035533905932738,-13.985281374238571 6.742640687119286,-13.278174593052023 6.035533905932738,-12.571067811865476" stroke-width="0.2%" stroke="black" fill="lightgrey" />
    <polygon points="6.035533905932738,-12.571067811865476 6.742640687119286,-13.278174593052023 7.742640687119286,-13.278174593052023 8.449747468305834,-12.571067811865476 8.449747468305834,-11.571067811865476 7.742640687119286,-10.86396103067893 6.742640687119286,-10.86396103067893 6.035533905932738,-11.571067811865476" stroke-width="0.2%" stroke="black" fill="lightgrey" />
    <polygon points="7.742640687119286,-10.86396103067893 8.449747468305834,-11.571067811865476 9.15685424949238,-10.86396103067893 8.449747468305834,-10.15685424949238" stroke-width="0.2%" stroke="black" fill="lightgrey" />
    <polygon points="8.449747468305834,-10.15685424949238 9.15685424949238,-10.86396103067893 10.15685424949238,-10.86396103067893 10.86396103067893,-10.15685424949238 10.86396103067893,-9.15685424949238 10.15685424949238,-8.449747468305834 9.15685424949238,-8.449747468305834 8.449747468305834,-9.15685424949238" stroke-width="0.2%" stroke="black" fill="lightgrey" />
    <polygon points="10.15685424949238,-8.449747468305834 10.86396103067893,-9.15685424949238 11.571067811865476,-8.449747468305834 10.86396103067893,-7.742640687119286" stroke-width="0.2%" stroke="black" fill="lightgrey" />
    <polygon points="10.86396103067893,-7.742640687119286 11.571067811865476,-8.449747468305834 12.571067811865476,-8.449747468305834 13.278174593052023,-7.742640687119286 13.278174593052023,-6.742640687119286 12.571067811865476,-6.035533905932738 11.571067811865476,-6.035533905932738 10.86396103067893,-6.742640687119286" stroke-width="0.2%" stroke="black" fill="lightgrey" />
    <polygon points="12.571067811865476,-6.035533905932738 13.278174593052023,-6.742640687119286 13.985281374238571,-6.035533905932738 13.278174593052023,-5.32842712474619" stroke-width="0.2%" stroke="black" fill="lightgrey" />
    <polygon points="13.278174593052023,-5.32842712474619 13.985281374238571,-6.035533905932738 14.985281374238571,-6.035533905932738 15.69238815542512,-5.32842712474619 15.69238815542512,-4.32842712474619 14.985281374238571,-3.621320343559643 13.985281374238571,-3.621320343559643 13.278174593052023,-4.32842712474619" stroke-width="0.2%" stroke="black" fill="lightgrey" />
    <polygon points="14.985281374238571,-3.621320343559643 15.69238815542512,-4.32842712474619 16.399494936611667,-3.621320343559643 15.69238815542512,-2.914213562373095" stroke-width="0.2%" stroke="black" fill="lightgrey" />
    <polygon points="15.69238815542512,-2.914213562373095 16.399494936611667,-3.621320343559643 17.399494936611667,-3.621320343559643 18.106601717798213,-2.914213562373095 18.106601717798213,-1.9142135623730951 17.399494936611667,-1.2071067811865475 16.399494936611667,-1.2071067811865475 15.69238815542512,-1.9142135623730951" stroke-width="0.2%" stroke="black" fill="lightgrey" />
    <polygon points="17.399494936611667,-1.2071067811865475 18.106601717798213,-1.9142135623730951 18.81370849898476,-1.2071067811865475 18.106601717798213,-0.5" stroke-width="0.2%" stroke="black" fill="lightgrey" />

  </g>
</svg>
