
<svg viewBox="-8 -8 16 16" xmlns="http://www.w3.org/2000/svg" width="400" height="400">
  <g transform="scale(1 -1)">
  <rect x="-8" y="-8" width="16" height="16" fill="darkgrey" stroke-width="0" />
    <polygon points="-0.5,-0.8660254037844386 0.5,-0.8660254037844386 1,0 0.5,0.8660254037844386 -0.5,0.8660254037844386 -1,0" stroke-width="0.2%" stroke="black" fill="lightgrey" />
    <polygon points="1,0 1.5,-0.8660254037844386 2.5,-0.8660254037844386 3,0 2.5,0.8660254037844386 1.5,0.8660254037844386" stroke-width="0.2%" stroke="black" fill="lightgrey" />
    <polygon points="1,0 1.5,0.8660254037844386 0.5,0.8660254037844386" stroke-width="0.2%" stroke="black" fill="lightgrey" />
    <polygon points="2.5,0.8660254037844386 2,1.7320508075688772 1.5,0.8660254037844386" stroke-width="0.2%" stroke="black" fill="lightgrey" />
    <polygon points="3,0 3.5,-0.8660254037844386 4.5,-0.8660254037844386 5,0 4.5,0.8660254037844386 3.5,0.8660254037844386" stroke-width="0.2%" stroke="black" fill="lightgrey" />
    <polygon points="3,0 3.5,0.8660254037844386 2.5,0.8660254037844386" stroke-width="0.2%" stroke="black" fill="lightgrey" />
    <polygon points="4.5,0.8660254037844386 4,1.7320508075688772 3.5,0.8660254037844386" stroke-width="0.2%" stroke="black" fill="lightgrey" />
    <polygon points="2.5,0.8660254037844386 3.5,0.8660254037844386 4,1.7320508075688772 3.5,2.598076211353316 2.5,2.598076211353316 2,1.7320508075688772" stroke-width="0.2%" stroke="black" fill="lightgrey" />
    <polygon points="2,1.7320508075688772 2.5,2.598076211353316 1.5,2.598076211353316" stroke-width="0.2%" stroke="black" fill="lightgrey" />
    <polygon points="3.5,2.598076211353316 3,3.4641016151377544 2.5,2.598076211353316" stroke-width="0.2%" stroke="black" fill="lightgrey" />
    <polygon points="5,0 5.5,-0.8660254037844386 6.5,-0.8660254037844386 7,0 6.5,0.8660254037844386 5.5,0.8660254037844386" stroke-width="0.2%" stroke="black" fill="lightgrey" />
    <polygon points="5,0 5.5,0.8660254037844386 4.5,0.8660254037844386" stroke-width="0.2%" stroke="black" fill="lightgrey" />
    <polygon points="6.5,0.8660254037844386 6,1.7320508075688772 5.5,0.8660254037844386" stroke-width="0.2%" stroke="black" fill="lightgrey" />
    <polygon points="4.5,0.8660254037844386 5.5,0.8660254037844386 6,1.7320508075688772 5.5,2.598076211353316 4.5,2.598076211353316 4,1.7320508075688772" stroke-width="0.2%" stroke="black" fill="lightgrey" />
    <polygon points="4,1.7320508075688772 4.5,2.598076211353316 3.5,2.598076211353316" stroke-width="0.2%" stroke="black" fill="lightgrey" />
    <polygon points="5.5,2.598076211353316 5,3.4641016151377544 4.5,2.598076211353316" stroke-width="0.2%" stroke="black" fill="lightgrey" />
    <polygon points="3.5,2.598076211353316 4.5,2.598076211353316 5,3.4641016151377544 4.5,4.330127018922193 3.5,4.330127018922193 3,3.4641016151377544" stroke-width="0.2%" stroke="black" fill="lightgrey" />
    <polygon points="3,3.4641016151377544 3.5,4.330127018922193 2.5,4.330127018922193" stroke-width="0.2%" stroke="black" fill="lightgrey" />
    <polygon points="4.5,4.330127018922193 4,5.196152422706632 3.5,4.330127018922193" stroke-width="0.2%" stroke="black" fill="lightgrey" />
    <polygon points="0.5,0.8660254037844386 1.5,0.8660254037844386 2,1.7320508075688772 1.5,2.598076211353316 0.5,2.598076211353316 0,1.7320508075688772" stroke-width="0.2%" stroke="black" fill="lightgrey" />
    <polygon points="0.5,0.8660254037844386 0,1.7320508075688772 -0.5,0.8660254037844386" stroke-width="0.2%" stroke="black" fill="lightgrey" />
    <polygon points="0.5,2.598076211353316 -0.5,2.598076211353316 0,1.7320508075688772" stroke-width="0.2%" stroke="black" fill="lightgrey" />
    <polygon points="1.5,2.598076211353316 2.5,2.598076211353316 3,3.4641016151377544 2.5,4.330127018922193 1.5,4.330127018922193 1,3.4641016151377544" stroke-width="0.2%" stroke="black" fill="lightgrey" />
    <polygon points="1.5,2.598076211353316 1,3.4641016151377544 0.5,2.598076211353316" stroke-width="0.2%" stroke="black" fill="lightgrey" />
    <polygon points="1.5,4.330127018922193 0.5,4.330127018922193 1,3.4641016151377544" stroke-width="0.2%" stroke="black" fill="lightgrey" />
    <polygon points="0.5,2.598076211353316 1,3.4641016151377544 0.5,4.330127018922193 -0.5,4.330127018922193 -1,3.4641016151377544 -0.5,2.598076211353316" stroke-width="0.2%" stroke="black" fill="lightgrey" />
    <polygon points="-0.5,2.598076211353316 -1,3.4641016151377544 -1.5,2.598076211353316" stroke-width="0.2%" stroke="black" fill="lightgrey" />
    <polygon points="-0.5,4.330127018922193 -1.5,4.330127018922193 -1,3.4641016151377544" stroke-width="0.2%" stroke="black" fill="lightgrey" />
    <polygon points="2.5,4.330127018922193 3.5,4.330127018922193 4,5.196152422706632 3.5,6.06217782649107 2.5,6.06217782649107 2,5.196152422706632" stroke-width="0.2%" stroke="black" fill="lightgrey" />
    <polygon points="2.5,4.330127018922193 2,5.196152422706632 1.5,4.330127018922193" stroke-width="0.2%" stroke="black" fill="lightgrey" />
    <polygon points="2.5,6.06217782649107 1.5,6.06217782649107 2,5.196152422706632" stroke-width="0.2%" stroke="black" fill="lightgrey" />
    <polygon points="1.5,4.330127018922193 2,5.196152422706632 1.5,6.06217782649107 0.5,6.06217782649107 0,5.196152422706632 0.5,4.330127018922193" stroke-width="0.2%" stroke="black" fill="lightgrey" />
    <polygon points="0.5,4.330127018922193 0,5.196152422706632 -0.5,4.330127018922193" stroke-width="0.2%" stroke="black" fill="lightgrey" />
    <polygon points="0.5,6.06217782649107 -0.5,6.06217782649107 0,5.196152422706632" stroke-width="0.2%" stroke="black" fill="lightgrey" />
    <polygon points="-0.5,4.330127018922193 0,5.196152422706632 -0.5,6.06217782649107 -1.5,6.06217782649107 -2,5.196152422706632 -1.5,4.330127018922193" stroke-width="0.2%" stroke="black" fill="lightgrey" />
    <polygon points="-1.5,4.330127018922193 -2,5.196152422706632 -2.5,4.330127018922193" stroke-width="0.2%" stroke="black" fill="lightgrey" />
    <polygon points="-1.5,6.06217782649107 -2.5,6.06217782649107 -2,5.196152422706632" stroke-width="0.2%" stroke="black" fill="lightgrey" />
    <polygon points="-0.5,0.8660254037844386 0,1.7320508075688772 -0.5,2.598076211353316 -1.5,2.598076211353316 -2,1.7320508075688772 -1.5,0.8660254037844386" stroke-width="0.2%" stroke="black" fill="lightgrey" />
    <polygon points="-0.5,0.8660254037844386 -1.5,0.8660254037844386 -1,0" stroke-width="0.2%" stroke="black" fill="lightgrey" />
    <polygon points="-2,1.7320508075688772 -2.5,0.8660254037844386 -1.5,0.8660254037844386" stroke-width="0.2%" stroke="black" fill="lightgrey" />
    <polygon points="-1.5,2.598076211353316 -1,3.4641016151377544 -1.5,4.330127018922193 -2.5,4.330127018922193 -3,3.4641016151377544 -2.5,2.598076211353316" stroke-width="0.2%" stroke="black" fill="lightgrey" />
    <polygon points="-1.5,2.598076211353316 -2.5,2.598076211353316 -2,1.7320508075688772" stroke-width="0.2%" stroke="black" fill="lightgrey" />
    <polygon points="-3,3.4641016151377544 -3.5,2.598076211353316 -2.5,2.598076211353316" stroke-width="0.2%" stroke="black" fill="lightgrey" />
    <polygon points="-2,1.7320508075688772 -2.5,2.598076211353316 -3.5,2.598076211353316 -4,1.7320508075688772 -3.5,0.8660254037844386 -2.5,0.8660254037844386" stroke-width="0.2%" stroke="black" fill="lightgrey" />
    <polygon points="-2.5,0.8660254037844386 -3.5,0.8660254037844386 -3,0" stroke-width="0.2%" stroke="black" fill="lightgrey" />
    <polygon points="-4,1.7320508075688772 -4.5,0.8660254037844386 -3.5,0.8660254037844386" stroke-width="0.2%" stroke="black" fill="lightgrey" />
    <polygon points="-2.5,4.330127018922193 -2,5.196152422706632 -2.5,6.06217782649107 -3.5,6.06217782649107 -4,5.196152422706632 -3.5,4.330127018922193" stroke-width="0.2%" stroke="black" fill="lightgrey" />
    <polygon points="-2.5,4.330127018922193 -3.5,4.330127018922193 -3,3.4641016151377544" stroke-width="0.2%" stroke="black" fill="lightgrey" />
    <polygon points="-4,5.196152422706632 -4.5,4.330127018922193 -3.5,4.330127018922193" stroke-width="0.2%" stroke="black" fill="lightgrey" />
    <polygon points="-3,3.4641016151377544 -3.5,4.330127018922193 -4.5,4.330127018922193 -5,3.4641016151377544 -4.5,2.598076211353316 -3.5,2.598076211353316" stroke-width="0.2%" stroke="black" fill="lightgrey" />
    <polygon points="-3.5,2.598076211353316 -4.5,2.598076211353316 -4,1.7320508075688772" stroke-width="0.2%" stroke="black" fill="lightgrey" />
    <polygon points="-5,3.4641016151377544 -5.5,2.598076211353316 -4.5,2.598076211353316" stroke-width="0.2%" stroke="black" fill="lightgrey" />
    <polygon points="-4,1.7320508075688772 -4.5,2.598076211353316 -5.5,2.598076211353316 -6,1.7320508075688772 -5.5,0.8660254037844386 -4.5,0.8660254037844386" stroke-width="0.2%" stroke="black" fill="lightgrey" />
    <polygon points="-4.5,0.8660254037844386 -5.5,0.8660254037844386 -5,0" stroke-width="0.2%" stroke="black" fill="lightgrey" />
    <polygon points="-6,1.7320508075688772 -6.5,0.8660254037844386 -5.5,0.8660254037844386" stroke-width="0.2%" stroke="black" fill="lightgrey" />
    <polygon points="-1,0 -1.5,0.8660254037844386 -2.5,0.8660254037844386 -3,0 -2.5,-0.8660254037844386 -1.5,-0.8660254037844386" stroke-width="0.2%" stroke="black" fill="lightgrey" />
    <polygon points="-1,0 -1.5,-0.8660254037844386 -0.5,-0.8660254037844386" stroke-width="0.2%" stroke="black" fill="lightgrey" />
    <polygon points="-2.5,-0.8660254037844386 -2,-1.7320508075688772 -1.5,-0.8660254037844386" stroke-width="0.2%" stroke="black" fill="lightgrey" />
    <polygon points="-3,0 -3.5,0.8660254037844386 -4.5,0.8660254037844386 -5,0 -4.5,-0.8660254037844386 -3.5,-0.8660254037844386" stroke-width="0.2%" stroke="black" fill="lightgrey" />
    <polygon points="-3,0 -3.5,-0.8660254037844386 -2.5,-0.8660254037844386" stroke-width="0.2%" stroke="black" fill="lightgrey" />
    <polygon points="-4.5,-0.8660254037844386 -4,-1.7320508075688772 -3.5,-0.8660254037844386" stroke-width="0.2%" stroke="black" fill="lightgrey" />
    <polygon points="-2.5,-0.8660254037844386 -3.5,-0.8660254037844386 -4,-1.7320508075688772 -3.5,-2.598076211353316 -2.5,-2.598076211353316 -2,-1.7320508075688772" stroke-width="0.2%" stroke="black" fill="lightgrey" />
    <polygon points="-2,-1.7320508075688772 -2.5,-2.598076211353316 -1.5,-2.598076211353316" stroke-width="0.2%" stroke="black" fill="lightgrey" />
    <polygon points="-3.5,-2.598076211353316 -3,-3.4641016151377544 -2.5,-2.598076211353316" stroke-width="0.2%" stroke="black" fill="lightgrey" />
    <polygon points="-5,0 -5.5,0.8660254037844386 -6.5,0.8660254037844386 -7,0 -6.5,-0.8660254037844386 -5.5,-0.8660254037844386" stroke-width="0.2%" stroke="black" fill="lightgrey" />
    <polygon points="-5,0 -5.5,-0.8660254037844386 -4.5,-0.8660254037844386" stroke-width="0.2%" stroke="black" fill="lightgrey" />
    <polygon points="-6.5,-0.8660254037844386 -6,-1.7320508075688772 -5.5,-0.8660254037844386" stroke-width="0.2%" stroke="black" fill="lightgrey" />
    <polygon points="-4.5,-0.8660254037844386 -5.5,-0.8660254037844386 -6,-1.7320508075688772 -5.5,-2.598076211353316 -4.5,-2.598076211353316 -4,-1.7320508075688772" stroke-width="0.2%" stroke="black" fill="lightgrey" />
    <polygon points="-4,-1.7320508075688772 -4.5,-2.598076211353316 -3.5,-2.598076211353316" stroke-width="0.2%" stroke="black" fill="lightgrey" />
    <polygon points="-5.5,-2.598076211353316 -5,-3.4641016151377544 -4.5,-2.598076211353316" stroke-width="0.2%" stroke="black" fill="lightgrey" />
    <polygon points="-3.5,-2.598076211353316 -4.5,-2.598076211353316 -5,-3.4641016151377544 -4.5,-4.330127018922193 -3.5,-4.330127018922193 -3,-3.4641016151377544" stroke-width="0.2%" stroke="black" fill="lightgrey" />
    <polygon points="-3,-3.4641016151377544 -3.5,-4.330127018922193 -2.5,-4.330127018922193" stroke-width="0.2%" stroke="black" fill="lightgrey" />
    <polygon points="-4.5,-4.330127018922193 -4,-5.196152422706632 -3.5,-4.330127018922193" stroke-width="0.2%" stroke="black" fill="lightgrey" />
    <polygon points="-0.5,-0.8660254037844386 -1.5,-0.8660254037844386 -2,-1.7320508075688772 -1.5,-2.598076211353316 -0.5,-2.598076211353316 0,-1.7320508075688772" stroke-width="0.2%" stroke="black" fill="lightgrey" />
    <polygon points="-0.5,-0.8660254037844386 0,-1.7320508075688772 0.5,-0.8660254037844386" stroke-width="0.2%" stroke="black" fill="lightgrey" />
    <polygon points="-0.5,-2.598076211353316 0.5,-2.598076211353316 0,-1.7320508075688772" stroke-width="0.2%" stroke="black" fill="lightgrey" />
    <polygon points="-1.5,-2.598076211353316 -2.5,-2.598076211353316 -3,-3.4641016151377544 -2.5,-4.330127018922193 -1.5,-4.330127018922193 -1,-3.4641016151377544" stroke-width="0.2%" stroke="black" fill="lightgrey" />
    <polygon points="-1.5,-2.598076211353316 -1,-3.4641016151377544 -0.5,-2.598076211353316" stroke-width="0.2%" stroke="black" fill="lightgrey" />
    <polygon points="-1.5,-4.330127018922193 -0.5,-4.330127018922193 -1,-3.4641016151377544" stroke-width="0.2%" stroke="black" fill="lightgrey" />
    <polygon points="-0.5,-2.598076211353316 -1,-3.4641016151377544 -0.5,-4.330127018922193 0.5,-4.330127018922193 1,-3.4641016151377544 0.5,-2.598076211353316" stroke-width="0.2%" stroke="black" fill="lightgrey" />
    <polygon points="0.5,-2.598076211353316 1,-3.4641016151377544 1.5,-2.598076211353316" stroke-width="0.2%" stroke="black" fill="lightgrey" />
    <polygon points="0.5,-4.330127018922193 1.5,-4.330127018922193 1,-3.4641016151377544" stroke-width="0.2%" stroke="black" fill="lightgrey" />
    <polygon points="-2.5,-4.330127018922193 -3.5,-4.330127018922193 -4,-5.196152422706632 -3.5,-6.06217782649107 -2.5,-6.06217782649107 -2,-5.196152422706632" stroke-width="0.2%" stroke="black" fill="lightgrey" />
    <polygon points="-2.5,-4.330127018922193 -2,-5.196152422706632 -1.5,-4.330127018922193" stroke-width="0.2%" stroke="black" fill="lightgrey" />
    <polygon points="-2.5,-6.06217782649107 -1.5,-6.06217782649107 -2,-5.196152422706632" stroke-width="0.2%" stroke="black" fill="lightgrey" />
    <polygon points="-1.5,-4.330127018922193 -2,-5.196152422706632 -1.5,-6.06217782649107 -0.5,-6.06217782649107 0,-5.196152422706632 -0.5,-4.330127018922193" stroke-width="0.2%" stroke="black" fill="lightgrey" />
    <polygon points="-0.5,-4.330127018922193 0,-5.196152422706632 0.5,-4.330127018922193" stroke-width="0.2%" stroke="black" fill="lightgrey" />
    <polygon points="-0.5,-6.06217782649107 0.5,-6.06217782649107 0,-5.196152422706632" stroke-width="0.2%" stroke="black" fill="lightgrey" />
    <polygon points="0.5,-4.330127018922193 0,-5.196152422706632 0.5,-6.06217782649107 1.5,-6.06217782649107 2,-5.196152422706632 1.5,-4.330127018922193" stroke-width="0.2%" stroke="black" fill="lightgrey" />
    <polygon points="1.5,-4.330127018922193 2,-5.196152422706632 2.5,-4.330127018922193" stroke-width="0.2%" stroke="black" fill="lightgrey" />
    <polygon points="1.5,-6.06217782649107 2.5,-6.06217782649107 2,-5.196152422706632" stroke-width="0.2%" stroke="black" fill="lightgrey" />
    <polygon points="0.5,-0.8660254037844386 0,-1.7320508075688772 0.5,-2.598076211353316 1.5,-2.598076211353316 2,-1.7320508075688772 1.5,-0.8660254037844386" stroke-width="0.2%" stroke="black" fill="lightgrey" />
    <polygon points="0.5,-0.8660254037844386 1.5,-0.8660254037844386 1,0" stroke-width="0.2%" stroke="black" fill="lightgrey" />
    <polygon points="2,-1.7320508075688772 2.5,-0.8660254037844386 1.5,-0.8660254037844386" stroke-width="0.2%" stroke="black" fill="lightgrey" />
    <polygon points="1.5,-2.598076211353316 1,-3.4641016151377544 1.5,-4.330127018922193 2.5,-4.330127018922193 3,-3.4641016151377544 2.5,-2.598076211353316" stroke-width="0.2%" stroke="black" fill="lightgrey" />
    <polygon points="1.5,-2.598076211353316 2.5,-2.598076211353316 2,-1.7320508075688772" stroke-width="0.2%" stroke="black" fill="lightgrey" />
    <polygon points="3,-3.4641016151377544 3.5,-2.598076211353316 2.5,-2.598076211353316" stroke-width="0.2%" stroke="black" fill="lightgrey" />
    <polygon points="2,-1.7320508075688772 2.5,-2.598076211353316 3.5,-2.598076211353316 4,-1.7320508075688772 3.5,-0.8660254037844386 2.5,-0.8660254037844386" stroke-width="0.2%" stroke="black" fill="lightgrey" />
    <polygon points="2.5,-0.8660254037844386 3.5,-0.8660254037844386 3,0" stroke-width="0.2%" stroke="black" fill="lightgrey" />
    <polygon points="4,-1.7320508075688772 4.5,-0.8660254037844386 3.5,-0.8660254037844386" stroke-width="0.2%" stroke="black" fill="lightgrey" />
    <polygon points="2.5,-4.330127018922193 2,-5.196152422706632 2.5,-6.06217782649107 3.5,-6.06217782649107 4,-5.196152422706632 3.5,-4.330127018922193" stroke-width="0.2%" stroke="black" fill="lightgrey" />
    <polygon points="2.5,-4.330127018922193 3.5,-4.330127018922193 3,-3.4641016151377544" stroke-width="0.2%" stroke="black" fill="lightgrey" />
    <polygon points="4,-5.196152422706632 4.5,-4.330127018922193 3.5,-4.330127018922193" stroke-width="0.2%" stroke="black" fill="lightgrey" />
    <polygon points="3,-3.4641016151377544 3.5,-4.330127018922193 4.5,-4.330127018922193 5,-3.4641016151377544 4.5,-2.598076211353316 3.5,-2.598076211353316" stroke-width="0.2%" stroke="black" fill="lightgrey" />
    <polygon points="3.5,-2.598076211353316 4.5,-2.598076211353316 4,-1.7320508075688772" stroke-width="0.2%" stroke="black" fill="lightgrey" />
    <polygon points="5,-3.4641016151377544 5.5,-2.598076211353316 4.5,-2.598076211353316" stroke-width="0.2%" stroke="black" fill="lightgrey" />
    <polygon points="4,-1.7320508075688772 4.5,-2.598076211353316 5.5,-2.598076211353316 6,-1.7320508075688772 5.5,-0.8660254037844386 4.5,-0.8660254037844386" stroke-width="0.2%" stroke="black" fill="lightgrey" />
    <polygon points="4.5,-0.8660254037844386 5.5,-0.8660254037844386 5,0" stroke-width="0.2%" stroke="black" fill="lightgrey" />
    <polygon points="6,-1.7320508075688772 6.5,-0.8660254037844386 5.5,-0.8660254037844386" stroke-width="0.2%" stroke="black" fill="lightgrey" />

  </g>
</svg>
