
<svg viewBox="-8 -8 16 16" xmlns="http://www.w3.org/2000/svg" width="288" height="288">
  <g transform="scale(1 -1)">
  <rect x="-8" y="-8" width="16" height="16" fill="darkgrey" stroke-width="0" />
    <polygon points="-0.5,-1.2071067811865475 0.5,-1.2071067811865475 1.2071067811865475,-0.5 1.2071067811865475,0.5 0.5,1.2071067811865475 -0.5,1.2071067811865475 -1.2071067811865475,0.5 -1.2071067811865475,-0.5" stroke-width="0.2%" stroke="black" fill="lightgrey" />
    <polygon points="1.2071067811865475,-0.5 1.9142135623730951,-1.2071067811865475 2.914213562373095,-1.2071067811865475 3.621320343559643,-0.5 3.621320343559643,0.5 2.914213562373095,1.2071067811865475 1.9142135623730951,1.2071067811865475 1.2071067811865475,0.5" stroke-width="0.2%" stroke="black" fill="lightgrey" />
    <polygon points="1.2071067811865475,0.5 1.9142135623730951,1.2071067811865475 1.2071067811865475,1.9142135623730951 0.5,1.2071067811865475" stroke-width="0.2%" stroke="black" fill="lightgrey" />
    <polygon points="3.621320343559643,-0.5 4.32842712474619,-1.2071067811865475 5.32842712474619,-1.2071067811865475 6.035533905932738,-0.5 6.035533905932738,0.5 5.32842712474619,1.2071067811865475 4.32842712474619,1.2071067811865475 3.621320343559643,0.5" stroke-width="0.2%" stroke="black" fill="lightgrey" />
    <polygon points="3.621320343559643,0.5 4.32842712474619,1.2071067811865475 3.621320343559643,1.9142135623730951 2.914213562373095,1.2071067811865475" stroke-width="0.2%" stroke="black" fill="lightgrey" />
    <polygon points="2.914213562373095,1.2071067811865475 3.621320343559643,1.9142135623730951 3.621320343559643,2.914213562373095 2.914213562373095,3.621320343559643 1.9142135623730951,3.621320343559643 1.2071067811865475,2.914213562373095 1.2071067811865475,1.9142135623730951 1.9142135623730951,1.2071067811865475" stroke-width="0.2%" stroke="black" fill="lightgrey" />
    <polygon points="1.2071067811865475,2.914213562373095 1.9142135623730951,3.621320343559643 1.2071067811865475,4.32842712474619 0.5,3.621320343559643" stroke-width="0.2%" stroke="black" fill="lightgrey" />
    <polygon points="0.5,1.2071067811865475 1.2071067811865475,1.9142135623730951 1.2071067811865475,2.914213562373095 0.5,3.621320343559643 -0.5,3.621320343559643 -1.2071067811865475,2.914213562373095 -1.2071067811865475,1.9142135623730951 -0.5,1.2071067811865475" stroke-width="0.2%" stroke="black" fill="lightgrey" />
    <polygon points="-0.5,1.2071067811865475 -1.2071067811865475,1.9142135623730951 -1.9142135623730951,1.2071067811865475 -1.2071067811865475,0.5" stroke-width="0.2%" stroke="black" fill="lightgrey" />
    <polygon points="0.5,3.621320343559643 1.2071067811865475,4.32842712474619 1.2071067811865475,5.32842712474619 0.5,6.035533905932738 -0.5,6.035533905932738 -1.2071067811865475,5.32842712474619 -1.2071067811865475,4.32842712474619 -0.5,3.621320343559643" stroke-width="0.2%" stroke="black" fill="lightgrey" />
    <polygon points="-0.5,3.621320343559643 -1.2071067811865475,4.32842712474619 -1.9142135623730951,3.621320343559643 -1.2071067811865475,2.914213562373095" stroke-width="0.2%" stroke="black" fill="lightgrey" />
    <polygon points="-1.2071067811865475,2.914213562373095 -1.9142135623730951,3.621320343559643 -2.914213562373095,3.621320343559643 -3.621320343559643,2.914213562373095 -3.621320343559643,1.9142135623730951 -2.914213562373095,1.2071067811865475 -1.9142135623730951,1.2071067811865475 -1.2071067811865475,1.9142135623730951" stroke-width="0.2%" stroke="black" fill="lightgrey" />
    <polygon points="-2.914213562373095,1.2071067811865475 -3.621320343559643,1.9142135623730951 -4.32842712474619,1.2071067811865475 -3.621320343559643,0.5" stroke-width="0.2%" stroke="black" fill="lightgrey" />
    <polygon points="-1.2071067811865475,0.5 -1.9142135623730951,1.2071067811865475 -2.914213562373095,1.2071067811865475 -3.621320343559643,0.5 -3.621320343559643,-0.5 -2.914213562373095,-1.2071067811865475 -1.9142135623730951,-1.2071067811865475 -1.2071067811865475,-0.5" stroke-width="0.2%" stroke="black" fill="lightgrey" />
    <polygon points="-1.2071067811865475,-0.5 -1.9142135623730951,-1.2071067811865475 -1.2071067811865475,-1.9142135623730951 -0.5,-1.2071067811865475" stroke-width="0.2%" stroke="black" fill="lightgrey" />
    <polygon points="-3.621320343559643,0.5 -4.32842712474619,1.2071067811865475 -5.32842712474619,1.2071067811865475 -6.035533905932738,0.5 -6.035533905932738,-0.5 -5.32842712474619,-1.2071067811865475 -4.32842712474619,-1.2071067811865475 -3.621320343559643,-0.5" stroke-width="0.2%" stroke="black" fill="lightgrey" />
    <polygon points="-3.621320343559643,-0.5 -4.32842712474619,-1.2071067811865475 -3.621320343559643,-1.9142135623730951 -2.914213562373095,-1.2071067811865475" stroke-width="0.2%" stroke="black" fill="lightgrey" />
    <polygon points="-2.914213562373095,-1.2071067811865475 -3.621320343559643,-1.9142135623730951 -3.621320343559643,-2.914213562373095 -2.914213562373095,-3.621320343559643 -1.9142135623730951,-3.621320343559643 -1.2071067811865475,-2.914213562373095 -1.2071067811865475,-1.9142135623730951 -1.9142135623730951,-1.2071067811865475" stroke-width="0.2%" stroke="black" fill="lightgrey" />
    <polygon points="-1.2071067811865475,-2.914213562373095 -1.9142135623730951,-3.621320343559643 -1.2071067811865475,-4.32842712474619 -0.5,-3.621320343559643" stroke-width="0.2%" stroke="black" fill="lightgrey" />
    <polygon points="-0.5,-1.2071067811865475 -1.2071067811865475,-1.9142135623730951 -1.2071067811865475,-2.914213562373095 -0.5,-3.621320343559643 0.5,-3.621320343559643 1.2071067811865475,-2.914213562373095 1.2071067811865475,-1.9142135623730951 0.5,-1.2071067811865475" stroke-width="0.2%" stroke="black" fill="lightgrey" />
    <polygon points="0.5,-1.2071067811865475 1.2071067811865475,-1.9142135623730951 1.9142135623730951,-1.2071067811865475 1.2071067811865475,-0.5" stroke-width="0.2%" stroke="black" fill="lightgrey" />
    <polygon points="-0.5,-3.621320343559643 -1.2071067811865475,-4.32842712474619 -1.2071067811865475,-5.32842712474619 -0.5,-6.035533905932738 0.5,-6.035533905932738 1.2071067811865475,-5.32842712474619 1.2071067811865475,-4.32842712474619 0.5,-3.621320343559643" stroke-width="0.2%" stroke="black" fill="lightgrey" />
    <polygon points="0.5,-3.621320343559643 1.2071067811865475,-4.32842712474619 1.9142135623730951,-3.621320343559643 1.2071067811865475,-2.914213562373095" stroke-width="0.2%" stroke="black" fill="lightgrey" />
    <polygon points="1.2071067811865475,-2.914213562373095 1.9142135623730951,-3.621320343559643 2.914213562373095,-3.621320343559643 3.621320343559643,-2.914213562373095 3.621320343559643,-1.9142135623730951 2.914213562373095,-1.2071067811865475 1.9142135623730951,-1.2071067811865475 1.2071067811865475,-1.9142135623730951" stroke-width="0.2%" stroke="black" fill="lightgrey" />
    <polygon points="2.914213562373095,-1.2071067811865475 3.621320343559643,-1.9142135623730951 4.32842712474619,-1.2071067811865475 3.621320343559643,-0.5" stroke-width="0.2%" stroke="black" fill="lightgrey" />

  </g>
</svg>
