
<svg viewBox="-5 -5 10 10" xmlns="http://www.w3.org/2000/svg" width="1000" height="1000">
  <g transform="scale(1 -1)">
    <polygon points="0.5,-1.2071067811865475 1.2071067811865475,-1.9142135623730951 1.9142135623730951,-1.2071067811865475 1.2071067811865475,-0.5" stroke-width="0.2%" stroke="black" fill="lightgrey" />
    <polygon points="1.2071067811865475,0.5 1.9142135623730951,1.2071067811865475 1.2071067811865475,1.9142135623730951 0.5,1.2071067811865475" stroke-width="0.2%" stroke="black" fill="lightgrey" />
    <polygon points="-0.5,1.2071067811865475 -1.2071067811865475,1.9142135623730951 -1.9142135623730951,1.2071067811865475 -1.2071067811865475,0.5" stroke-width="0.2%" stroke="black" fill="lightgrey" />
    <polygon points="-1.2071067811865475,-0.5 -1.9142135623730951,-1.2071067811865475 -1.2071067811865475,-1.9142135623730951 -0.5,-1.2071067811865475" stroke-width="0.2%" stroke="black" fill="lightgrey" />
    <polygon points="1.2071067811865475,-0.5 1.9142135623730951,-1.2071067811865475 2.914213562373095,-1.2071067811865475 3.621320343559643,-0.5 3.621320343559643,0.5 2.914213562373095,1.2071067811865475 1.9142135623730951,1.2071067811865475 1.2071067811865475,0.5" stroke-width="0.2%" stroke="black" fill="lightgrey" />
    <polygon points="0.5,1.2071067811865475 1.2071067811865475,1.9142135623730951 1.2071067811865475,2.914213562373095 0.5,3.621320343559643 -0.5,3.621320343559643 -1.2071067811865475,2.914213562373095 -1.2071067811865475,1.9142135623730951 -0.5,1.2071067811865475" stroke-width="0.2%" stroke="black" fill="lightgrey" />
    <polygon points="-1.2071067811865475,0.5 -1.9142135623730951,1.2071067811865475 -2.914213562373095,1.2071067811865475 -3.621320343559643,0.5 -3.621320343559643,-0.5 -2.914213562373095,-1.2071067811865475 -1.9142135623730951,-1.2071067811865475 -1.2071067811865475,-0.5" stroke-width="0.2%" stroke="black" fill="lightgrey" />
    <polygon points="-0.5,-1.2071067811865475 -1.2071067811865475,-1.9142135623730951 -1.2071067811865475,-2.914213562373095 -0.5,-3.621320343559643 0.5,-3.621320343559643 1.2071067811865475,-2.914213562373095 1.2071067811865475,-1.9142135623730951 0.5,-1.2071067811865475" stroke-width="0.2%" stroke="black" fill="lightgrey" />
    <polygon points="-0.5,-1.2071067811865475 0.5,-1.2071067811865475 1.2071067811865475,-0.5 1.2071067811865475,0.5 0.5,1.2071067811865475 -0.5,1.2071067811865475 -1.2071067811865475,0.5 -1.2071067811865475,-0.5" stroke-width="0.2%" stroke="black" fill="lightgrey" />

  </g>
</svg>
